<svg width="200" height="40" viewBox="0 0 200 40" fill="none" xmlns="http://www.w3.org/2000/svg">
<path fill-rule="evenodd" clip-rule="evenodd" d="M62.5469 37.3475C62.5469 37.7316 62.3878 37.9815 62.0929 38.1414C61.5014 38.4813 60.3186 38.6203 59.5014 38.6203C57.4065 38.6203 55.3374 37.9373 53.5423 36.1839C52.7467 35.4149 51.1316 33.0903 51.1316 29.8873C51.1316 27.2227 52.0621 25.1592 53.3815 24.1114C55.1116 22.7453 56.8159 22.6103 58.2511 22.6103C61.1824 22.6103 63.0258 23.5859 63.5955 24.4521C63.9378 24.9969 64.0495 25.6341 64.0728 25.9531C64.0969 26.1564 64.1194 26.293 64.2335 26.293C64.3918 26.293 64.4344 26.1805 64.4344 25.8181C64.4344 23.5376 64.5951 22.906 64.5951 22.5878C64.5951 22.4946 64.5525 22.4054 64.3203 22.3845C63.7522 22.3604 62.9543 22.2704 62.477 22.1579C62.0479 22.0671 60.4327 21.7682 58.9992 21.7682C57.2507 21.7682 54.9975 21.9289 52.9508 23.2018C50.9259 24.4754 49.1525 27.0427 49.1525 30.6852C49.1525 33.5274 50.4719 35.9565 51.858 37.1659C54.3852 39.37 57.6139 39.5966 59.3391 39.5966C60.6609 39.5966 62.7027 39.3475 64.1604 38.5721C64.432 38.4138 64.4553 38.3712 64.4553 37.3475V34.7986C64.4553 33.844 64.4553 33.1626 64.5003 32.4362C64.5461 31.6374 64.7261 31.2509 65.3424 31.1352C65.6156 31.0926 65.7522 31.0677 65.9105 31.0677C66.0029 31.0677 66.0921 31.0251 66.0921 30.9311C66.0921 30.7993 65.9796 30.7527 65.7289 30.7527C65.0451 30.7527 63.6132 30.8186 63.5007 30.8186C63.389 30.8186 61.9554 30.7527 60.9293 30.7527C60.6802 30.7527 60.5661 30.7969 60.5661 30.9303C60.5661 31.0251 60.6585 31.0669 60.7493 31.0669C60.9526 31.0669 61.3407 31.0926 61.5207 31.1352C62.4328 31.3867 62.5428 31.6374 62.5428 33.4832V37.3475H62.5469V37.3475ZM69.2951 37.1265C68.9415 38.1012 68.551 38.8413 67.6526 38.957C67.4652 38.9809 67.2766 38.9938 67.0877 38.9956C66.9897 38.9956 66.9142 39.0381 66.9142 39.1153C66.9142 39.231 67.0299 39.2696 67.2854 39.2696C68.199 39.2696 69.2718 39.2133 69.4863 39.2133C69.7001 39.2133 70.5374 39.2696 71.0067 39.2696C71.1802 39.2696 71.2983 39.2294 71.2983 39.1153C71.2983 39.0398 71.2405 38.9948 71.1015 38.9948H70.9086C70.576 38.9948 70.1645 38.818 70.1645 38.4331C70.1645 38.0819 70.2626 37.6159 70.4402 37.1273L71.6077 33.6785C71.6479 33.5772 71.7082 33.5177 71.8046 33.5177H75.9959C76.0923 33.5177 76.1325 33.5579 76.1727 33.6391L77.9855 38.4331C78.102 38.7424 77.9855 38.916 77.8642 38.957C77.787 38.9803 77.7284 39.0148 77.7284 39.0936C77.7284 39.2117 77.9429 39.2117 78.315 39.227C79.6569 39.268 81.0808 39.268 81.3749 39.268C81.587 39.268 81.7654 39.2278 81.7654 39.1137C81.7654 39.0148 81.6875 38.9931 81.5677 38.9931C81.3733 38.9931 81.0792 38.9779 80.7891 38.8774C80.3793 38.7577 79.8152 38.4483 79.1145 36.7135C77.9252 33.7516 74.8669 25.7016 74.5696 24.9615C74.3374 24.3573 74.2586 24.2624 74.1429 24.2624C74.0224 24.2624 73.9452 24.3806 73.7138 25.0202L69.2943 37.1273L69.2951 37.1265ZM72.0191 32.8179C71.9653 32.8179 71.9227 32.7777 71.9653 32.6813L73.6785 27.4196C73.7749 27.1263 73.8713 27.1263 73.971 27.4196L75.8215 32.6813C75.8408 32.76 75.8408 32.8179 75.746 32.8179H72.0191V32.8179ZM86.4212 25.3738L88.9467 25.4139C90.8705 25.4509 91.3333 25.9009 91.4137 26.4827L91.4313 26.6996C91.4506 26.9712 91.4924 27.0291 91.5945 27.0291C91.6732 27.0291 91.7311 26.9487 91.7311 26.7759C91.7311 26.5614 91.7905 25.2171 91.7905 24.6313C91.7905 24.5156 91.7905 24.3998 91.6917 24.3998C91.6081 24.3998 91.4289 24.4384 91.1292 24.4963C90.8094 24.5365 90.3481 24.5927 89.7037 24.5927H82.1881C81.9494 24.5927 81.186 24.5541 80.6035 24.4963C80.0651 24.4561 79.8626 24.264 79.7252 24.264C79.6456 24.264 79.5661 24.5172 79.5203 24.6313C79.4825 24.7864 79.0815 26.465 79.0815 26.6602C79.0815 26.7784 79.1217 26.8362 79.1804 26.8362C79.2607 26.8362 79.3242 26.7976 79.3837 26.6393C79.4407 26.506 79.501 26.3645 79.7252 26.0367C80.045 25.5666 80.5223 25.4316 81.7662 25.4139L84.7353 25.3738V33.6198C84.7353 35.4889 84.7353 37.0285 84.6341 37.8481C84.5545 38.4122 84.4557 38.8429 84.0515 38.9184C83.8707 38.9586 83.6329 38.9972 83.4521 38.9972C83.3283 38.9972 83.2914 39.0574 83.2914 39.1177C83.2914 39.2334 83.3918 39.272 83.6104 39.272C84.2146 39.272 85.4746 39.2157 85.5726 39.2157C85.6755 39.2157 86.9395 39.272 88.0363 39.272C88.2613 39.272 88.3626 39.2157 88.3626 39.1169C88.3626 39.059 88.3208 38.9972 88.1978 38.9972C88.0211 38.9972 87.5759 38.9586 87.2995 38.9184C86.6968 38.8429 86.5763 38.4122 86.516 37.8481C86.4172 37.0285 86.4172 35.4889 86.4172 33.6198V25.3738H86.4212V25.3738ZM95.5335 33.6182C95.5335 35.4865 95.5335 37.0269 95.4346 37.8457C95.3551 38.4082 95.2586 38.8413 94.8705 38.916C94.6793 38.9622 94.4838 38.9889 94.2872 38.9956C94.169 38.9956 94.1305 39.055 94.1305 39.1153C94.1305 39.231 94.2269 39.2696 94.4398 39.2696C94.7347 39.2696 95.1791 39.2503 95.572 39.2294C95.9794 39.2294 96.3113 39.2117 96.3507 39.2117C96.9164 39.2117 98.2205 39.3258 101.164 39.3258C101.929 39.3258 102.08 39.3258 102.213 38.818C102.313 38.4082 102.468 37.0863 102.468 36.9296C102.468 36.7946 102.468 36.6363 102.354 36.6363C102.255 36.6363 102.213 36.7159 102.176 36.9296C102.041 37.7284 101.807 38.1189 101.301 38.3366C100.794 38.5472 99.9345 38.5472 99.4283 38.5472C97.519 38.5472 97.2274 38.2941 97.1679 36.9513C97.1502 36.5399 97.1679 34.2811 97.1679 33.6182V31.8986C97.1679 31.8231 97.204 31.762 97.3013 31.762C97.6372 31.762 99.5657 31.8022 100.087 31.864C100.852 31.9388 101.027 32.2714 101.104 32.5455C101.181 32.8026 101.181 32.9922 101.181 33.1875C101.181 33.2855 101.219 33.3667 101.314 33.3667C101.451 33.3667 101.451 33.1505 101.451 32.9938C101.451 32.8548 101.492 32.1397 101.529 31.7459C101.591 31.1031 101.685 30.7736 101.685 30.6579C101.685 30.5422 101.648 30.5036 101.591 30.5036C101.511 30.5036 101.432 30.6017 101.297 30.7567C101.121 30.9536 100.851 30.9882 100.38 31.0291C99.9305 31.0693 97.5327 31.0693 97.282 31.0693C97.1832 31.0693 97.1639 31.0099 97.1639 30.8741V25.4975C97.1639 25.3617 97.2008 25.2998 97.282 25.2998C97.4981 25.2998 99.6203 25.3191 99.9498 25.3601C101.005 25.4758 101.2 25.708 101.338 26.023C101.434 26.2544 101.453 26.5855 101.453 26.7221C101.453 26.8804 101.493 26.9752 101.612 26.9752C101.687 26.9752 101.728 26.8595 101.747 26.7647C101.786 26.5268 101.822 25.6711 101.841 25.4758C101.902 24.931 102 24.6956 102 24.5581C102 24.4593 101.976 24.3846 101.925 24.3846C101.822 24.3846 101.747 24.4593 101.65 24.4786C101.492 24.5188 101.181 24.5581 100.808 24.5774C100.364 24.5967 96.4841 24.5967 96.3442 24.5967C96.2438 24.5967 95.0176 24.5405 94.1401 24.5405C93.9296 24.5405 93.8291 24.579 93.8291 24.6956C93.8291 24.7703 93.9063 24.8113 93.985 24.8113C94.1634 24.8113 94.4937 24.8346 94.652 24.8707C95.2932 25.0081 95.4443 25.3191 95.4885 25.9845C95.527 26.6064 95.527 27.1512 95.527 30.1902V33.6182H95.5335V33.6182ZM108.836 39.5444C109.927 39.5444 111.026 39.3081 111.896 38.7207C113.293 37.7701 113.618 36.2844 113.618 35.4865C113.618 33.9292 113.05 32.7222 110.655 30.907L110.094 30.4803C108.183 28.9793 107.622 28.3107 107.622 27.205C107.622 25.7852 108.713 24.9447 110.11 24.9447C111.979 24.9447 112.524 25.7643 112.64 25.9764C112.766 26.191 112.887 26.7181 112.909 26.9503C112.934 27.107 112.955 27.205 113.07 27.205C113.176 27.205 113.215 27.07 113.215 26.7607C113.215 25.4316 113.293 24.788 113.293 24.6891C113.293 24.5927 113.253 24.5565 113.092 24.5565C112.931 24.5565 112.766 24.5365 112.381 24.4577C111.874 24.3396 111.29 24.2649 110.494 24.2649C107.923 24.2649 106.302 25.6847 106.302 27.7715C106.302 29.0974 106.784 30.3043 108.937 31.9974L109.846 32.7238C111.593 34.1035 112.181 34.8822 112.181 36.2289C112.181 37.4768 111.224 38.818 109.282 38.818C107.924 38.818 106.586 38.2788 106.278 36.8332C106.221 36.5608 106.222 36.2868 106.222 36.1124C106.222 35.9565 106.201 35.8963 106.077 35.8963C105.979 35.8963 105.94 35.9983 105.916 36.2113C105.896 36.5222 105.817 37.2993 105.817 38.2788C105.817 38.8019 105.837 38.8815 106.119 39.0165C106.947 39.403 107.887 39.5444 108.835 39.5444M126.592 29.999C126.837 29.8294 126.874 29.5876 126.755 29.4076H124.702C125.144 28.0512 125.472 26.7607 126.247 25.6887C126.638 25.1472 127.048 24.8289 127.524 24.8289C127.956 24.8289 128.479 25.1166 128.531 26.0744C128.547 26.1886 128.612 26.3316 128.759 26.3316C129.024 26.3316 129.464 25.8374 129.464 25.3408C129.464 24.6988 128.805 24.2857 128.117 24.2857C127.152 24.2857 126.183 24.6682 125.356 25.6132C124.391 26.7301 123.959 27.974 123.532 29.41H122.127C121.907 29.5546 121.839 29.86 122.006 30.0014H123.369C122.582 32.6073 122.038 35.3515 121.199 38.02C120.857 39.104 120.465 39.3459 120.166 39.3459C119.836 39.3459 119.409 39.1233 119.184 38.7505C119.049 38.5456 118.935 38.4178 118.703 38.6107C118.59 38.6902 118.397 38.8292 118.397 39.1868C118.397 39.4576 118.702 40 119.46 40C120.43 40 121.133 39.3764 121.328 39.1868C121.676 38.8815 122.173 38.0024 122.63 36.5672C123.172 34.8123 123.647 33.0388 124.174 31.2646C124.317 30.7897 124.454 30.2738 124.55 30.003H126.593V29.999H126.592ZM132.41 29.1898C131.757 29.1898 131.04 29.4269 130.205 30.2272C129.121 31.2606 128.531 32.8122 128.466 33.803C128.371 35.1739 129.042 35.9292 130.062 35.9292C130.499 35.9292 131.353 35.8456 132.344 34.8259C133.531 33.6126 133.992 32.0778 134.039 31.1987C134.105 30.0376 133.546 29.1898 132.41 29.1898M132.306 29.6671C132.86 29.6671 132.955 30.2272 132.94 30.7198C132.908 31.5659 132.159 33.672 131.451 34.6154C130.941 35.3008 130.542 35.4479 130.195 35.4479C129.728 35.4479 129.506 34.9842 129.543 34.4274C129.583 33.5812 130.208 31.68 131.135 30.4337C131.594 29.8118 131.981 29.6671 132.306 29.6671M139.09 29.6671C139.188 29.3923 138.806 29.1898 138.588 29.1898C137.81 29.1898 136.146 30.4474 135.718 31.083C135.702 31.2276 135.832 31.3562 136.001 31.3241C136.397 30.9247 137.261 30.2272 137.579 30.2272C137.711 30.2272 137.693 30.3855 137.579 30.6868L136.052 34.5704C135.768 35.2679 135.851 35.9268 136.53 35.9268C137.424 35.9268 139.486 33.881 140.685 32.4297L140.716 32.4458L139.584 35.3651C139.486 35.6182 139.737 35.9276 140 35.9276C140.888 35.9276 142.474 34.666 142.908 33.8962C142.892 33.7074 142.755 33.6431 142.606 33.672C142.175 34.1702 141.301 34.9208 140.985 34.9208C140.816 34.9208 140.832 34.7295 140.919 34.5206C141.614 32.625 142.693 29.999 142.858 29.5723C142.795 29.3795 142.392 29.2187 142.046 29.283C141.501 30.2561 140.633 32.1091 139.121 33.5467C138.258 34.3599 137.595 34.8701 137.348 34.8701C137.163 34.8701 137.076 34.7118 137.233 34.3317L139.089 29.6671H139.09ZM148.572 29.8447C148.719 29.4735 148.541 29.1898 148.156 29.1898C147.361 29.1898 146.383 29.8447 145.78 30.6732C145.764 30.7993 145.84 30.911 145.973 30.911C146.497 30.4514 147.057 30.1171 147.426 30.1171C147.554 30.1171 147.554 30.2714 147.474 30.4803C147.391 30.7061 145.701 35.3016 145.621 35.5114C145.475 35.8754 145.903 35.9292 146.082 35.9292C146.225 35.9292 146.292 35.877 146.368 35.7323C147.31 33.9774 147.967 32.7335 148.818 31.6784C149.686 30.5792 150.635 29.7804 151.015 29.7804C151.256 29.7804 151.275 29.9725 151.275 30.1613C151.275 30.4803 151.065 31.0388 150.939 31.3265C150.57 32.1244 149.979 33.6913 149.645 34.474C149.308 35.2695 149.26 35.386 149.26 35.5266C149.26 35.7187 149.501 35.9284 149.645 35.9284C150.52 35.9284 151.784 35.1618 152.394 34.1365C152.394 34.0103 152.357 33.8826 152.131 33.9155C151.675 34.474 150.904 35.0035 150.638 35.0035C150.52 35.0035 150.537 34.8589 150.599 34.6982C150.651 34.5744 151.795 31.9677 152.087 31.1706C152.218 30.8034 152.344 30.3108 152.344 30.0536C152.344 29.5257 152.069 29.1938 151.449 29.1938C150.249 29.1938 148.671 30.948 147.54 32.6732L147.492 32.6427L148.572 29.8447V29.8447ZM160.497 29.6856C160.325 29.3481 159.937 29.1898 159.684 29.1898C158.919 29.1898 157.91 29.6342 156.824 30.6081C155.564 31.7403 154.705 33.6431 154.705 34.7737C154.705 35.4133 155.035 35.9268 155.658 35.9268C157.205 35.9268 158.411 34.3776 159.507 32.9071L159.566 32.9207L159.012 34.5037C158.853 34.9649 158.803 35.2197 158.803 35.4133C158.803 35.6705 158.98 35.9276 159.315 35.9276C160.149 35.9276 161.595 34.613 162.03 33.7379C162.016 33.5933 161.937 33.5314 161.79 33.5314C161.292 34.1534 160.288 34.9666 160.035 34.9666C159.893 34.9666 159.874 34.8083 159.937 34.6001C160.084 34.1204 160.832 31.5683 162.412 27.205C162.891 25.8832 163.133 25.2765 163.417 24.3806L163.353 24.2857C162.671 24.2697 161.781 24.4786 161.47 24.5887C161.405 24.6506 161.386 24.7478 161.421 24.8097L161.79 25.0684C162.016 25.213 161.968 25.5007 161.647 26.3943L160.498 29.6864L160.497 29.6856ZM159.651 29.6671C160.051 29.6671 160.26 30.1444 160.067 30.8146C159.833 31.6607 159.361 32.625 158.123 33.8986C157.018 35.0284 156.206 35.3209 155.965 35.3209C155.822 35.3209 155.659 35.1739 155.659 34.9826C155.659 34.7753 155.659 34.4876 156.156 33.4671C156.648 32.4611 157.797 30.944 158.438 30.3526C158.856 29.9725 159.282 29.6671 159.651 29.6671M169.795 29.8447C169.717 29.707 169.607 29.5908 169.473 29.5064C169.357 29.4416 169.226 29.4071 169.093 29.406C168.678 29.406 168.273 29.5217 167.655 29.872C166.998 30.2385 166.313 30.8781 165.545 31.9291C164.489 33.386 164.137 34.6636 164.137 35.0268C164.137 35.4768 164.394 35.9268 164.842 35.9268C165.59 35.9268 167.222 34.8235 168.355 33.4197L168.403 33.4382L167.876 34.8685C167.752 35.239 167.717 35.3844 167.717 35.4921C167.717 35.6158 167.815 35.9268 168.177 35.9268C169.056 35.9268 170.188 35.0268 170.865 34.1341C170.865 34.0087 170.747 33.9292 170.639 33.9292C169.733 34.7295 169.265 35.0019 168.992 35.0019C168.865 35.0019 168.786 34.9031 168.878 34.6323C169.393 33.1795 170.78 29.6511 171.022 29.058C170.923 28.8555 170.507 28.6932 170.242 28.825L169.795 29.8447ZM168.594 30.0183C169.009 30.0183 169.279 30.2915 169.394 30.5944C169.137 31.5346 168.467 32.9087 167.255 34.0417C166.346 34.8701 165.866 35.0766 165.704 35.0766C165.561 35.0766 165.466 34.9666 165.466 34.7753C165.466 33.6455 166.44 31.5507 167.462 30.641C167.96 30.1927 168.214 30.0183 168.595 30.0183M177.885 29.9379C178.09 29.8198 178.192 29.4903 178.08 29.3256H176.336L176.801 27.6944C176.673 27.5289 176.352 27.4951 176.196 27.5972L175.299 29.2388L174.021 29.4703C173.865 29.5362 173.813 29.7692 173.85 29.9339H175.088L173.595 34.5182C173.436 35.014 173.369 35.2454 173.369 35.4648C173.369 35.6632 173.575 35.9164 173.803 35.9164C174.472 35.9164 175.973 34.8974 176.864 33.5274C176.903 33.3281 176.805 33.2277 176.646 33.2277C176.12 33.8544 175.065 34.7191 174.828 34.7191C174.696 34.7191 174.621 34.6186 174.71 34.3068L176.151 29.9355H177.885V29.9379V29.9379ZM179.15 35.349C179.115 35.42 179.103 35.5003 179.116 35.5785C179.129 35.6568 179.166 35.7289 179.223 35.7846C179.307 35.877 179.407 35.9292 179.493 35.9292C180.671 35.9292 182.427 34.4892 182.677 34.024C182.677 33.885 182.593 33.7709 182.428 33.7572C181.849 34.3792 180.941 34.936 180.655 34.936C180.517 34.936 180.535 34.7448 180.601 34.5841L182.634 30.0496C182.839 29.5876 182.839 29.4429 182.735 29.3481C182.663 29.2822 182.578 29.1898 182.458 29.1898C181.9 29.1898 180.589 29.7804 179.651 30.7833C179.614 30.9094 179.715 31.0388 179.872 31.0565C180.721 30.3992 181.17 30.2095 181.286 30.2095C181.403 30.2095 181.403 30.3357 181.323 30.5149L179.15 35.349V35.349ZM182.901 25.3561C182.237 25.3561 181.98 26.0134 181.98 26.3629C181.98 26.649 182.153 26.9672 182.593 26.9672C183.124 26.9672 183.497 26.4593 183.497 25.9628C183.497 25.6132 183.293 25.3561 182.901 25.3561M189.592 29.1898C188.934 29.1898 188.214 29.4269 187.385 30.2272C186.297 31.2606 185.708 32.8122 185.644 33.803C185.55 35.1739 186.218 35.9292 187.244 35.9292C187.675 35.9292 188.535 35.8456 189.524 34.8259C190.709 33.6126 191.168 32.0778 191.219 31.1987C191.282 30.0376 190.721 29.1898 189.592 29.1898ZM189.478 29.6671C190.04 29.6671 190.132 30.2272 190.117 30.7198C190.083 31.5659 189.333 33.672 188.633 34.6154C188.124 35.3008 187.723 35.4479 187.366 35.4479C186.909 35.4479 186.686 34.9842 186.716 34.4274C186.761 33.5812 187.387 31.68 188.312 30.4337C188.776 29.8118 189.157 29.6671 189.478 29.6671M196.01 29.8447C196.161 29.4735 195.976 29.1898 195.584 29.1898C194.754 29.1898 193.74 29.8447 193.105 30.6732C193.089 30.7993 193.175 30.911 193.306 30.911C193.854 30.4514 194.439 30.1171 194.82 30.1171C194.947 30.1171 194.947 30.2714 194.867 30.4803C194.784 30.7061 193.022 35.3016 192.94 35.5114C192.791 35.8754 193.237 35.9292 193.422 35.9292C193.575 35.9292 193.637 35.877 193.719 35.7323C194.7 33.9774 195.379 32.7335 196.261 31.6784C197.174 30.5792 198.158 29.7804 198.556 29.7804C198.804 29.7804 198.82 29.9725 198.82 30.1613C198.82 30.4803 198.607 31.0388 198.47 31.3265C198.09 32.1244 197.477 33.6913 197.128 34.474C196.778 35.2695 196.727 35.386 196.727 35.5266C196.727 35.7187 196.975 35.9284 197.127 35.9284C198.042 35.9284 199.352 35.1618 199.985 34.1365C199.985 34.0103 199.947 33.8826 199.718 33.9155C199.231 34.474 198.44 35.0035 198.161 35.0035C198.042 35.0035 198.058 34.8589 198.121 34.6982C198.17 34.5744 199.368 31.9677 199.667 31.1706C199.8 30.8034 199.935 30.3108 199.935 30.0536C199.935 29.5257 199.647 29.1938 199 29.1938C197.761 29.1938 196.115 30.948 194.934 32.6732L194.885 32.6427L196.01 29.8447H196.01ZM2.037 11.3003C2.037 13.5318 2.037 15.3687 1.92129 16.3467C1.82647 17.02 1.71076 17.5335 1.23988 17.6219C1.02935 17.6701 0.749714 17.7167 0.535969 17.7167C0.399365 17.7167 0.349545 17.7858 0.349545 17.8573C0.349545 17.9939 0.466864 18.0413 0.723197 18.0413C1.4263 18.0413 2.89921 17.9722 3.01493 17.9722C3.20376 17.9722 5.5879 18.1121 6.12708 18.1121C10.1256 18.1121 12.091 15.5302 12.091 13.0441C12.091 10.324 9.77601 8.67514 8.04436 8.14159C9.14361 7.00054 10.2405 5.8603 10.2405 3.95428C10.2405 2.79315 9.39834 0.46847 5.56219 0.46847C4.48703 0.46847 3.57741 0.537576 3.01493 0.537576C2.89761 0.537576 1.4247 0.46847 0.373652 0.46847C0.113301 0.46847 0 0.51588 0 0.651681C0 0.748107 0.093212 0.793909 0.186424 0.793909C0.396955 0.793909 0.792302 0.818016 0.98194 0.865425C1.75496 1.02694 1.93977 1.40059 1.98638 2.18888C2.03299 2.93296 2.03299 3.58063 2.03299 7.20947V11.2995H2.037V11.3003ZM3.90607 1.48898C3.90607 1.35238 3.97838 1.28167 4.18811 1.23185C4.56176 1.13944 5.05514 1.11774 5.30907 1.11774C7.6024 1.11774 8.46702 3.18769 8.46702 5.11541C8.46702 6.06762 8.11748 6.90492 7.62651 7.46178C7.13634 8.02105 6.80608 8.06846 5.49629 8.06846C4.63328 8.06846 4.21222 8.00097 4.06919 7.97605C3.95347 7.92784 3.90607 7.88284 3.90607 7.71892V1.48898V1.48898ZM3.90607 8.85835C3.90607 8.74023 3.95428 8.69443 4.04749 8.69443C4.39704 8.69443 5.5662 8.69443 5.86995 8.74023C6.43243 8.81095 7.01661 8.87844 7.81374 9.41522C9.61209 10.6479 10.0854 12.6688 10.0854 14.0654C10.0854 16.6922 8.04998 17.368 6.78599 17.368C6.36493 17.368 5.35889 17.3222 4.7273 17.0176C4.0041 16.6681 4.0041 16.3442 3.93178 15.2024C3.90767 14.8553 3.90767 11.9737 3.90767 10.1842V8.85835H3.90607V8.85835ZM18.5902 8.95237C18.5902 5.91494 18.5902 5.37014 18.6336 4.74417C18.6729 4.06035 18.8401 3.73009 19.4001 3.63286C19.6493 3.59268 19.7754 3.575 19.9225 3.575C20.0044 3.575 20.0912 3.53482 20.0912 3.45527C20.0912 3.33956 19.9835 3.30099 19.7529 3.30099C19.1302 3.30099 17.8212 3.35885 17.7167 3.35885C17.6131 3.35885 16.3049 3.30099 15.6186 3.30099C15.3896 3.30099 15.2868 3.34117 15.2868 3.45527C15.2868 3.53482 15.3687 3.57581 15.4515 3.57581C15.5977 3.57581 15.8677 3.59429 16.0943 3.65295C16.5564 3.75098 16.7621 4.08365 16.8031 4.74417C16.8465 5.36853 16.8465 5.91334 16.8465 8.95237V12.3819C16.8465 14.2526 16.8465 15.7946 16.742 16.6102C16.6592 17.1759 16.5564 17.6066 16.1393 17.6878C15.9338 17.7305 15.7248 17.7552 15.515 17.7617C15.3896 17.7617 15.3486 17.8212 15.3486 17.879C15.3486 17.9971 15.4531 18.0341 15.6821 18.0341C16.3065 18.0341 17.6155 17.9779 17.7167 17.9779C17.8236 17.9779 19.1326 18.0341 20.2744 18.0341C20.505 18.0341 20.6079 17.9779 20.6079 17.879C20.6079 17.8228 20.5645 17.7617 20.4407 17.7617C20.2559 17.7617 19.7963 17.7231 19.5054 17.6878C18.8811 17.6074 18.7613 17.1759 18.6954 16.6102C18.591 15.7922 18.591 14.251 18.591 12.3819V8.95237H18.5902ZM26.9632 8.95237C26.9632 5.91494 26.9632 5.37014 27.0058 4.74417C27.0476 4.06035 27.2083 3.73009 27.7949 3.63286C28.0383 3.59268 28.322 3.575 28.4666 3.575C28.5446 3.575 28.6273 3.53482 28.6273 3.45527C28.6273 3.33956 28.5245 3.30099 28.3019 3.30099C27.6928 3.30099 26.2135 3.35885 26.113 3.35885C26.011 3.35885 24.7325 3.30099 23.8229 3.30099C23.6011 3.30099 23.4991 3.34117 23.4991 3.45527C23.4991 3.53482 23.5794 3.57581 23.6598 3.57581C23.8422 3.57581 24.1885 3.59429 24.3492 3.63286C25.0178 3.76866 25.1809 4.08124 25.2211 4.74417C25.2629 5.36853 25.2629 5.91334 25.2629 8.95237V12.3819C25.2629 14.2526 25.2629 15.7946 25.1584 16.6102C25.078 17.1759 24.976 17.6066 24.5702 17.6878C24.3703 17.7305 24.167 17.7552 23.9627 17.7617C23.8406 17.7617 23.8004 17.8212 23.8004 17.879C23.8004 17.9971 23.9024 18.0341 24.1234 18.0341C24.4288 18.0341 24.8756 18.0164 25.2789 17.9955C25.6871 17.9955 26.0311 17.9763 26.1114 17.9763C27.287 17.9763 28.6249 18.0936 31.5434 18.0936C32.6178 18.0936 32.6764 18.0164 32.8211 17.5681C32.9834 17.0024 33.124 15.8332 33.124 15.6202C33.124 15.4041 33.1023 15.3269 32.9995 15.3269C32.8813 15.3269 32.8388 15.4258 32.8187 15.5817C32.7584 15.9513 32.5535 16.4383 32.2907 16.7508C31.8062 17.3149 30.9118 17.3342 29.8367 17.3342C28.2577 17.3342 27.729 17.1992 27.4051 16.8858C27.0419 16.5363 26.9592 15.29 26.9592 12.4229V8.95237H26.9632V8.95237ZM38.1591 8.95237C38.1591 5.91494 38.1591 5.37014 38.1992 4.74417C38.2402 4.06035 38.3929 3.73009 38.9594 3.63286C39.1924 3.59268 39.4672 3.575 39.6047 3.575C39.6802 3.575 39.7589 3.53482 39.7589 3.45527C39.7589 3.33956 39.6609 3.30099 39.448 3.30099C38.8622 3.30099 37.4423 3.35885 37.3419 3.35885C37.243 3.35885 36.0144 3.30099 35.1393 3.30099C34.9248 3.30099 34.8259 3.34117 34.8259 3.45527C34.8259 3.53482 34.9055 3.57581 34.9826 3.57581C35.1586 3.57581 35.4889 3.59429 35.6472 3.63286C36.2892 3.76866 36.4451 4.08124 36.4861 4.74417C36.5246 5.36853 36.5246 5.91334 36.5246 8.95237V12.3819C36.5246 14.2526 36.5246 15.7946 36.4282 16.6102C36.3487 17.1759 36.2514 17.6066 35.8641 17.6878C35.671 17.7304 35.4744 17.7552 35.2767 17.7617C35.1586 17.7617 35.1216 17.8212 35.1216 17.879C35.1216 17.9971 35.2181 18.0341 35.4326 18.0341C35.7243 18.0341 36.1558 18.0164 36.5415 17.9955C36.9345 17.9955 37.2623 17.9763 37.3419 17.9763C38.4725 17.9763 39.7589 18.0936 42.5649 18.0936C43.5967 18.0936 43.6578 18.0164 43.7952 17.5681C43.9479 17.0024 44.0853 15.8332 44.0853 15.6202C44.0853 15.4041 44.066 15.3269 43.9671 15.3269C43.8498 15.3269 43.8129 15.4258 43.7936 15.5817C43.7357 15.9513 43.5388 16.4383 43.2833 16.7508C42.8173 17.3149 41.9599 17.3342 40.9265 17.3342C39.4054 17.3342 38.8975 17.1992 38.5882 16.8858C38.2362 16.5363 38.1575 15.29 38.1575 12.4229V8.95237H38.1591V8.95237ZM51.2457 15.8187C52.3972 15.8187 54.0421 15.3101 55.1976 13.9746C56.4632 12.5017 56.8264 10.8246 56.8746 10.316C56.9067 9.99458 56.9405 9.18299 56.9405 8.87764C57.4499 9.30031 57.9931 9.94235 58.0743 10.079C58.1611 10.2123 58.2888 10.2959 58.4704 10.1786C58.7661 9.99217 59.4251 9.79128 59.7055 9.75512C59.8871 9.72137 60.035 9.70771 60.1338 9.58637C60.3374 9.37184 60.4498 9.08662 60.4472 8.79086C60.4472 8.35212 60.2833 7.84347 59.8389 7.84347C59.5432 7.84347 59.3126 8.06445 59.3126 8.26694C59.3126 8.31837 59.3455 8.40194 59.3785 8.52086C59.4114 8.62291 59.4444 8.75791 59.4444 8.94433C59.4444 9.23281 59.2804 9.46905 59.1117 9.46905C58.82 9.46905 58.7678 9.38388 58.3909 9.0279C57.5817 8.28462 57.106 7.70847 56.2004 7.70847C55.9706 7.70847 55.2281 7.84347 54.5716 8.40435C53.748 9.09942 53.4507 9.85878 53.4507 10.2983C53.4507 10.7531 53.8139 10.9773 54.1594 10.9773C54.6214 10.9773 54.7026 10.6222 54.7026 10.5032C54.7026 10.4012 54.6367 10.2139 54.5845 10.0315C54.5387 9.84271 54.4535 9.62655 54.4535 9.47146C54.4535 8.89451 55.1429 8.38828 55.6556 8.38828C55.9875 8.38828 56.3314 8.50559 56.5114 8.67755C56.4632 10.0637 56.2462 10.9114 55.6227 12.0967C54.668 13.9087 52.9886 14.8569 51.6226 14.8569C50.357 14.8569 48.676 14.1321 48.7089 11.9641V11.8283C50.4205 10.6278 53.1863 8.47345 54.5523 7.08652C56.0823 5.54772 56.6255 4.49668 56.6255 3.61598C56.6255 2.95707 56.2462 2.72002 55.8677 2.72002C55.5544 2.72002 55.2088 2.95627 55.2088 3.4159C55.2088 3.60072 55.2554 3.65214 55.3888 3.78955C55.5061 3.90607 55.5897 4.05954 55.5897 4.2982C55.5897 4.73694 55.2265 5.41514 54.9967 5.71727C54.5363 6.34324 53.3984 7.52928 52.676 8.13998C52.5274 7.92302 52.3626 7.47946 51.6378 7.47946C51.2762 7.47946 50.2549 7.64821 49.1846 8.7997C47.8684 10.1866 47.6056 11.5936 47.6056 12.4398C47.6096 14.1795 48.647 15.8187 51.2457 15.8187ZM48.7459 11.1806C48.86 10.4711 49.1227 9.79289 49.6346 9.09942C50.1296 8.4381 50.668 8.18498 50.9018 8.18498C51.2152 8.18498 51.4434 8.38828 51.4434 8.70729C51.4434 8.74345 51.4434 8.96282 51.4273 9.11549C50.8849 9.60566 49.915 10.3497 48.7459 11.1806M81.7943 0.625967C81.7477 0.184013 81.6762 0 81.5179 0C81.3572 0 81.2664 0.162318 81.1756 0.371241L74.4901 14.9726L67.5313 0.349545C67.4148 0.0908013 67.328 0 67.189 0C67.0532 0 66.9857 0.162318 66.9375 0.418651L65.3006 15.576C65.2098 16.4592 65.1423 17.3631 64.3886 17.5054C64.0487 17.5769 63.8904 17.5769 63.7064 17.5769C63.5931 17.5769 63.483 17.6203 63.483 17.691C63.483 17.8573 63.6389 17.9007 63.8671 17.9007C64.4818 17.9007 65.5706 17.8316 65.7763 17.8316C65.9595 17.8316 67.0492 17.9007 67.8937 17.9007C68.1645 17.9007 68.2995 17.8573 68.2995 17.6918C68.2995 17.6219 68.2111 17.5769 68.1179 17.5769C67.9813 17.5769 67.6406 17.5512 67.2541 17.458C67.088 17.4244 66.9385 17.3346 66.8308 17.2038C66.7231 17.073 66.6637 16.909 66.6627 16.7396C66.6627 16.3442 66.6627 15.9256 66.6868 15.5519L67.5964 4.76587H67.6872C67.9403 5.39264 70.4851 10.9741 70.6901 11.3903C70.8058 11.6234 72.7592 15.6452 73.3522 16.7846C73.7829 17.6203 73.8954 17.8549 74.0537 17.8549C74.2586 17.8549 74.3301 17.6436 74.8075 16.6191L80.3777 4.53364H80.4452L81.5348 16.5258C81.5814 16.9445 81.5605 17.3398 81.444 17.3631C81.3323 17.3889 81.2857 17.4347 81.2857 17.5295C81.2857 17.6436 81.4022 17.7151 81.9213 17.7609C82.7658 17.83 85.2183 17.8991 85.7205 17.8991C85.9969 17.8991 86.1978 17.83 86.1978 17.6894C86.1978 17.5962 86.1303 17.5745 86.0162 17.5745C85.7864 17.5745 85.199 17.5745 84.5401 17.3631C83.5581 17.0393 83.399 15.7384 83.309 14.9003L81.7943 0.625967ZM88.733 12.2469C88.733 14.1176 88.733 15.6572 88.6302 16.4744C88.5498 17.0409 88.4493 17.4676 88.046 17.5488C87.8611 17.5873 87.6177 17.6243 87.4369 17.6243C87.3139 17.6243 87.2721 17.6846 87.2721 17.7424C87.2721 17.8597 87.3742 17.8983 87.5992 17.8983C87.9029 17.8983 88.369 17.8774 88.7748 17.8581C89.2007 17.8581 89.5446 17.8405 89.5864 17.8405C90.173 17.8405 91.5318 17.957 94.5901 17.957C95.3824 17.957 95.5447 17.957 95.6829 17.4483C95.7858 17.0409 95.9489 15.7151 95.9489 15.5568C95.9489 15.4202 95.9489 15.2635 95.8243 15.2635C95.7255 15.2635 95.6837 15.3462 95.6452 15.5568C95.5005 16.3547 95.2578 16.7452 94.7291 16.9598C94.2044 17.1743 93.31 17.1743 92.7861 17.1743C90.7965 17.1743 90.4952 16.9212 90.4325 15.5785C90.4148 15.1686 90.4325 12.9058 90.4325 12.2453V10.5289C90.4325 10.4502 90.4727 10.3923 90.5755 10.3923C90.9211 10.3923 92.9243 10.4325 93.4732 10.4904C94.2647 10.5683 94.4455 10.9002 94.5258 11.175C94.6062 11.4257 94.6062 11.6194 94.6062 11.8162C94.6062 11.9127 94.6463 11.9938 94.7452 11.9938C94.8882 11.9938 94.8882 11.7793 94.8882 11.621C94.8882 11.486 94.93 10.7668 94.9726 10.3747C95.0304 9.73182 95.1333 9.39914 95.1333 9.28504C95.1333 9.16692 95.0931 9.12674 95.0304 9.12674C94.9525 9.12674 94.8697 9.22317 94.7251 9.38147C94.5459 9.57673 94.2631 9.61369 93.7745 9.65628C93.306 9.69646 90.8126 9.69646 90.5514 9.69646C90.451 9.69646 90.4285 9.63619 90.4285 9.49959V4.1182C90.4285 3.98321 90.4687 3.92294 90.5514 3.92294C90.7764 3.92294 92.983 3.94062 93.3285 3.9808C94.4238 4.09731 94.6263 4.33114 94.7693 4.64373C94.8721 4.87756 94.8898 5.20782 94.8898 5.34282C94.8898 5.50192 94.9324 5.59674 95.0545 5.59674C95.1349 5.59674 95.1751 5.48022 95.1952 5.3854C95.2337 5.15237 95.2755 4.29418 95.298 4.09731C95.3583 3.55411 95.4603 3.32028 95.4603 3.18126C95.4603 3.08242 95.4386 3.00689 95.3784 3.00689C95.2755 3.00689 95.1952 3.08242 95.0947 3.10733C94.8059 3.15929 94.5137 3.19044 94.2205 3.20055C93.7568 3.22144 89.7198 3.22144 89.5808 3.22144C89.4747 3.22144 88.1986 3.16358 87.2858 3.16358C87.0648 3.16358 86.9604 3.20215 86.9604 3.32028C86.9604 3.39742 87.0431 3.43599 87.1251 3.43599C87.3083 3.43599 87.6538 3.45527 87.8121 3.49625C88.4839 3.63125 88.6446 3.94062 88.6848 4.60516C88.7266 5.22952 88.7266 5.77432 88.7266 8.81737V12.2469H88.733V12.2469ZM101.939 8.81577C101.939 5.77432 101.939 5.22951 101.982 4.60355C102.024 3.92053 102.184 3.59268 102.769 3.49465C103.017 3.45367 103.3 3.43438 103.44 3.43438C103.523 3.43438 103.609 3.39581 103.609 3.31867C103.609 3.19814 103.503 3.16198 103.28 3.16198C102.667 3.16198 101.194 3.21983 101.092 3.21983C100.989 3.21983 99.7095 3.16198 98.7983 3.16198C98.5773 3.16198 98.4753 3.20055 98.4753 3.31867C98.4753 3.39581 98.5572 3.43438 98.64 3.43438C98.8208 3.43438 99.1647 3.45367 99.327 3.49384C99.998 3.62964 100.161 3.93821 100.197 4.60274C100.241 5.2271 100.241 5.77191 100.241 8.81577V12.2453C100.241 14.1152 100.241 15.6556 100.141 16.472C100.061 17.0385 99.9562 17.466 99.548 17.5488C99.3672 17.5857 99.1221 17.6227 98.9397 17.6227C98.8192 17.6227 98.7766 17.6822 98.7766 17.74C98.7766 17.8581 98.8786 17.8967 99.102 17.8967C99.4074 17.8967 99.8534 17.8758 100.259 17.8565C100.663 17.8565 101.011 17.8372 101.089 17.8372C102.265 17.8372 103.608 17.9546 106.519 17.9546C107.594 17.9546 107.652 17.8758 107.799 17.429C107.96 16.8649 108.1 15.6982 108.1 15.4796C108.1 15.2611 108.084 15.1879 107.982 15.1879C107.855 15.1879 107.817 15.286 107.797 15.4427C107.739 15.8123 107.538 16.2984 107.271 16.6102C106.781 17.1759 105.892 17.1968 104.817 17.1968C103.234 17.1968 102.705 17.0602 102.384 16.7508C102.018 16.3973 101.935 15.1518 101.935 12.2879V8.81577H101.939V8.81577ZM113.404 8.81577C113.404 5.77432 113.404 5.22951 113.448 4.60355C113.49 3.92053 113.656 3.59268 114.214 3.49465C114.468 3.45367 114.594 3.43438 114.736 3.43438C114.822 3.43438 114.902 3.39581 114.902 3.31867C114.902 3.19814 114.802 3.16198 114.573 3.16198C113.944 3.16198 112.639 3.21983 112.541 3.21983C112.431 3.21983 111.121 3.16198 110.436 3.16198C110.211 3.16198 110.1 3.20055 110.1 3.31867C110.1 3.39581 110.183 3.43438 110.271 3.43438C110.412 3.43438 110.686 3.45367 110.917 3.51474C111.376 3.61197 111.584 3.94062 111.621 4.60355C111.665 5.2271 111.665 5.77191 111.665 8.81577V12.2453C111.665 14.1152 111.665 15.6556 111.562 16.472C111.482 17.0385 111.374 17.466 110.958 17.5488C110.751 17.5916 110.542 17.6163 110.331 17.6227C110.21 17.6227 110.162 17.6822 110.162 17.74C110.162 17.8581 110.271 17.8967 110.496 17.8967C111.121 17.8967 112.431 17.8388 112.541 17.8388C112.642 17.8388 113.947 17.8967 115.092 17.8967C115.321 17.8967 115.424 17.8388 115.424 17.74C115.424 17.6838 115.385 17.6227 115.261 17.6227C115.072 17.6227 114.616 17.5841 114.328 17.5488C113.695 17.466 113.576 17.0385 113.514 16.472C113.404 15.6532 113.404 14.1136 113.404 12.2453V8.81577V8.81577ZM120.783 5.91093C121.423 6.61002 123.669 9.06889 125.983 11.5053C128.097 13.7255 130.967 16.5925 131.184 16.7854C132.245 17.8196 132.48 18.0341 132.638 18.0341C132.776 18.0341 132.819 17.9353 132.819 16.6464L132.859 5.22791C132.859 4.05794 132.936 3.62884 133.592 3.49384C133.839 3.43438 133.973 3.43438 134.076 3.43438C134.216 3.43438 134.293 3.37411 134.293 3.30099C134.293 3.18287 134.151 3.16439 133.934 3.16439C133.12 3.16439 132.46 3.22144 132.245 3.22144C132.02 3.22144 131.059 3.16358 130.173 3.16358C129.925 3.16358 129.768 3.18528 129.768 3.30019C129.768 3.37411 129.794 3.43438 129.925 3.43438C130.088 3.43438 130.546 3.45367 130.902 3.53241C131.521 3.6875 131.658 4.1182 131.681 5.3854L131.901 15.286C131.261 14.6431 129.088 12.2662 127.117 10.2011C124.05 6.98367 121.079 3.8458 120.783 3.51554C120.582 3.31867 120.247 2.88877 120.086 2.88877C119.925 2.88877 119.869 3.10573 119.869 3.86508L119.845 15.0312C119.845 16.8047 119.744 17.3728 119.246 17.5062C118.95 17.605 118.591 17.6243 118.435 17.6243C118.332 17.6243 118.274 17.6645 118.274 17.7424C118.274 17.8774 118.395 17.8983 118.591 17.8983C119.489 17.8983 120.323 17.8405 120.505 17.8405C120.686 17.8405 121.482 17.8983 122.614 17.8983C122.857 17.8983 122.969 17.8581 122.969 17.7424C122.969 17.6653 122.916 17.6243 122.816 17.6243C122.637 17.6243 122.197 17.605 121.816 17.5062C121.281 17.3503 121.079 16.8416 121.04 15.2458L120.783 5.91093V5.91093ZM137.71 12.2485C137.71 14.1176 137.71 15.6572 137.606 16.4768C137.526 17.0425 137.428 17.47 137.027 17.5512C136.832 17.5951 136.633 17.6201 136.433 17.6259C136.308 17.6259 136.27 17.6862 136.27 17.744C136.27 17.8622 136.372 17.9007 136.59 17.9007C137.189 17.9007 138.443 17.8429 138.538 17.8429C138.744 17.8429 141.25 18.0759 142.962 18.0759C146.349 18.0759 148.145 16.7099 149 15.8348C150.112 14.6857 151.154 12.7942 151.154 10.3385C151.154 8.01945 150.215 6.4019 149.22 5.38781C146.847 2.99162 143.199 3.16599 141.234 3.16599C140.039 3.16599 138.785 3.22385 138.538 3.22385C138.442 3.22385 137.187 3.16599 136.286 3.16599C136.073 3.16599 135.976 3.20456 135.976 3.32188C135.976 3.39983 136.053 3.4384 136.135 3.4384C136.308 3.4384 136.648 3.45768 136.81 3.49786C137.465 3.63446 137.624 3.94223 137.667 4.60676C137.709 5.23112 137.709 5.77593 137.709 8.81898V12.2485H137.71V12.2485ZM139.382 8.50238C139.382 7.00135 139.382 5.01497 139.401 4.35364C139.401 4.13749 139.458 4.04026 139.644 3.96151C139.798 3.88437 140.535 3.82651 140.936 3.82651C143.304 3.82651 145.577 4.09892 147.452 6.02905C148.266 6.86796 149.362 8.46783 149.362 10.9428C149.362 12.7339 148.805 14.607 147.772 15.5993C146.594 16.7484 144.882 17.4122 143.031 17.4122C140.679 17.4122 139.899 17.0024 139.644 16.6311C139.478 16.419 139.439 15.6363 139.423 15.1494C139.401 14.7797 139.382 12.987 139.382 10.9195V8.50238V8.50238ZM153.84 15.3454C153.493 16.2952 153.11 17.0168 152.225 17.1317C152.072 17.1486 151.802 17.1695 151.67 17.1695C151.568 17.1695 151.495 17.2097 151.495 17.2844C151.495 17.3993 151.612 17.4371 151.863 17.4371C152.767 17.4371 153.819 17.3808 154.033 17.3808C154.24 17.3808 155.069 17.4371 155.531 17.4371C155.703 17.4371 155.817 17.3977 155.817 17.2844C155.817 17.2089 155.761 17.1695 155.622 17.1695H155.432C155.101 17.1695 154.699 16.9983 154.699 16.6175C154.699 16.2743 154.795 15.8203 154.967 15.3454L156.12 11.9802C156.16 11.8837 156.213 11.8291 156.317 11.8291H160.447C160.54 11.8291 160.579 11.8693 160.618 11.944L162.404 16.6175C162.525 16.9244 162.404 17.0964 162.292 17.1317C162.214 17.1486 162.155 17.1864 162.155 17.2635C162.155 17.3792 162.37 17.3792 162.732 17.3961C164.06 17.4355 165.459 17.4355 165.749 17.4355C165.96 17.4355 166.134 17.3953 166.134 17.2828C166.134 17.1864 166.057 17.1679 165.941 17.1679C165.746 17.1679 165.457 17.147 165.168 17.053C164.766 16.9381 164.211 16.6351 163.516 14.9445C162.349 12.0533 159.332 4.20338 159.041 3.48179C158.814 2.89198 158.74 2.79797 158.62 2.79797C158.504 2.79797 158.426 2.91448 158.195 3.54045L153.84 15.3454V15.3454ZM156.529 11.1429C156.474 11.1429 156.432 11.1059 156.474 11.0119L158.167 5.87878C158.256 5.59593 158.354 5.59593 158.452 5.87878L160.275 11.0119C160.294 11.0866 160.294 11.1437 160.201 11.1437H156.529V11.1429Z" fill="black"/>
</svg>
