<svg width="99" height="75" viewBox="0 0 99 75" fill="none" xmlns="http://www.w3.org/2000/svg">
<path d="M72.4258 16.2807C72.4258 15.9551 72.7525 15.738 73.0792 15.738C73.406 15.738 73.6238 15.9551 73.6238 16.2807C73.6238 16.6063 73.2971 16.8234 73.0792 16.8234C72.6436 16.932 72.4258 16.6063 72.4258 16.2807ZM72.5347 17.9088H73.406V23.4443H72.5347V17.9088Z" fill="#1F1887"/>
<path d="M80.9208 17.9087V23.8783C80.9208 25.5064 79.6139 26.7003 78.0891 26.7003C76.8911 26.7003 75.802 25.9405 75.3664 24.7466L76.1287 24.421C76.3466 25.1808 77.1089 25.832 78.0891 25.832C79.1782 25.832 80.1584 24.9637 80.1584 23.7698V22.7929C79.6139 23.3356 78.9604 23.6612 78.0891 23.6612C76.4555 23.6612 75.2574 22.3588 75.2574 20.8392C75.2574 19.2112 76.5644 18.0172 78.0891 18.0172C78.8515 18.0172 79.6139 18.3428 80.0495 18.777V18.1258H80.9208V17.9087ZM80.0495 20.7307C80.0495 19.6453 79.1782 18.6685 77.9802 18.6685C76.8911 18.6685 75.9109 19.5368 75.9109 20.7307C75.9109 21.8161 76.7822 22.7929 77.9802 22.7929C79.1782 22.6844 80.0495 21.8161 80.0495 20.7307Z" fill="#1F1887"/>
<path d="M82.8812 16.2807C82.8812 15.9551 83.208 15.738 83.5347 15.738C83.8614 15.738 84.0792 15.9551 84.0792 16.2807C84.0792 16.6063 83.7525 16.8234 83.5347 16.8234C83.208 16.932 82.8812 16.6063 82.8812 16.2807ZM83.0991 17.9088H83.9703V23.4443H83.0991V17.9088Z" fill="#1F1887"/>
<path d="M87.1287 18.777V21.9246C87.1287 22.4673 87.5644 22.7929 88 22.7929H88.6535V23.4442C88.5445 23.5527 88.2178 23.6612 87.8911 23.6612C87.0198 23.6612 86.2574 23.01 86.2574 22.1417V18.8855H85.2772V18.0172H86.2574V15.6294H87.1287V18.0172H88.6535V18.8855H87.1287V18.777Z" fill="#1F1887"/>
<path d="M95.6238 22.793V23.5528C95.5149 23.6613 95.406 23.6613 95.1882 23.6613C94.5347 23.6613 94.0991 23.2272 93.8813 22.6845C93.4456 23.3357 92.6832 23.6613 91.703 23.6613C90.505 23.6613 89.8516 23.0101 89.8516 22.1418C89.8516 21.1649 90.6139 20.6223 91.703 20.6223H93.7724V20.1881C93.7724 19.3198 93.1189 18.8856 92.2476 18.8856C91.3763 18.8856 90.7229 19.3198 90.7229 20.1881H89.8516C89.8516 18.8856 90.9407 18.0173 92.2476 18.0173C93.5545 18.0173 94.6436 18.8856 94.6436 20.1881V22.2503C94.6436 22.793 94.8615 23.0101 95.1882 23.0101H95.6238V22.793ZM93.7724 21.5991V21.2735H91.812C91.1585 21.2735 90.7229 21.5991 90.7229 22.1418C90.7229 22.6845 91.1585 23.0101 91.812 23.0101C92.7922 22.793 93.5545 22.3589 93.7724 21.5991Z" fill="#1F1887"/>
<path d="M96.7129 13.3501H97.5842V23.5527H96.7129V13.3501Z" fill="#1F1887"/>
<path d="M70.6832 32.5615V28.9797H71.5545V32.453C71.5545 33.3213 72.0991 33.7554 72.7525 33.7554C73.5149 33.7554 73.9506 33.2127 73.9506 32.453V28.9797H74.8218V32.5615C74.8218 33.864 73.9506 34.6237 72.7525 34.6237C71.5545 34.6237 70.6832 33.864 70.6832 32.5615Z" fill="#1F1887"/>
<path d="M79.6139 28.8711C78.8516 28.8711 78.0892 29.1968 77.5446 29.7394V25.8321C77.2179 25.7235 77.0001 25.7235 76.6733 25.615V34.6237H77.5446V33.8639C78.0892 34.4066 78.7426 34.7322 79.6139 34.7322C81.2476 34.7322 82.4456 33.4298 82.4456 31.9102C82.4456 30.3907 81.1387 28.8711 79.6139 28.8711ZM79.6139 33.7554C78.5248 33.7554 77.5446 32.8871 77.5446 31.6931C77.5446 30.6078 78.4159 29.6309 79.6139 29.6309C80.703 29.6309 81.6832 30.4992 81.6832 31.6931C81.5743 32.8871 80.703 33.7554 79.6139 33.7554Z" fill="#1F1887"/>
<path d="M84.0792 24.3125H84.9505V34.5151H84.0792V24.3125Z" fill="#1F1887"/>
<path d="M86.9109 27.3515C86.9109 27.0259 87.2376 26.8088 87.5644 26.8088C87.8911 26.8088 88.1089 27.0259 88.1089 27.3515C88.1089 27.6771 87.7822 27.8942 87.5644 27.8942C87.2376 28.0028 86.9109 27.6771 86.9109 27.3515ZM87.1287 28.9796H88V34.5151H87.1287V28.9796Z" fill="#1F1887"/>
<path d="M89.7426 31.8017C89.7426 30.1737 91.0495 28.9797 92.5742 28.9797C93.8812 28.9797 94.9703 29.848 95.297 30.9334H94.4257C94.099 30.2822 93.4455 29.848 92.5742 29.848C91.4851 29.848 90.5049 30.7163 90.5049 31.9103C90.5049 33.1042 91.3762 33.9725 92.5742 33.9725C93.3366 33.9725 94.099 33.5383 94.4257 32.8871H95.297C94.9703 34.081 93.8812 34.8408 92.5742 34.8408C90.9406 34.6237 89.7426 33.3213 89.7426 31.8017Z" fill="#1F1887"/>
<path d="M72.7525 40.2676V40.4847C72.7525 42.8725 70.7921 44.7177 68.505 44.7177C66.1089 44.7177 64.2574 42.764 64.2574 40.4847C64.2574 38.0969 66.1089 36.2517 68.505 36.2517C70.1386 36.2517 71.4456 37.12 72.2079 38.4225L71.4456 38.8566C70.901 37.8798 69.8119 37.12 68.505 37.12C66.6535 37.12 65.1287 38.6396 65.1287 40.4847C65.1287 42.3299 66.6535 43.8494 68.505 43.8494C70.1386 43.8494 71.5545 42.6555 71.8812 41.0274H68.505V40.1591H72.7525V40.2676Z" fill="#1F1887"/>
<path d="M74.0594 41.8957C74.0594 40.2677 75.3664 39.0737 76.8911 39.0737C78.5248 39.0737 79.7228 40.3762 79.7228 41.8957C79.7228 43.5238 78.4159 44.7177 76.8911 44.7177C75.3664 44.8263 74.0594 43.5238 74.0594 41.8957ZM78.9604 41.8957C78.9604 40.8103 78.0891 39.8335 76.8911 39.8335C75.802 39.8335 74.8218 40.7018 74.8218 41.8957C74.8218 43.0896 75.6931 43.958 76.8911 43.958C78.0891 43.958 78.9604 43.0896 78.9604 41.8957Z" fill="#1F1887"/>
<path d="M81.0298 41.8957C81.0298 40.2677 82.3367 39.0737 83.8615 39.0737C85.4951 39.0737 86.6931 40.3762 86.6931 41.8957C86.6931 43.5238 85.3862 44.7177 83.8615 44.7177C82.3367 44.8263 81.0298 43.5238 81.0298 41.8957ZM85.9308 41.8957C85.9308 40.8103 85.0595 39.8335 83.8615 39.8335C82.7724 39.8335 81.7922 40.7018 81.7922 41.8957C81.7922 43.0896 82.6634 43.958 83.8615 43.958C85.0595 43.958 85.9308 43.0896 85.9308 41.8957Z" fill="#1F1887"/>
<path d="M93.8812 34.5151V44.7177H93.0099V43.958C92.4653 44.5007 91.8119 44.8263 90.9406 44.8263C89.3069 44.8263 88.1089 43.5238 88.1089 42.0043C88.1089 40.3762 89.4158 39.1823 90.9406 39.1823C91.7029 39.1823 92.4653 39.5079 93.0099 40.0506V34.7322H93.8812V34.5151ZM93.0099 41.8957C93.0099 40.8104 92.1386 39.8335 90.9406 39.8335C89.8515 39.8335 88.8713 40.7018 88.8713 41.8957C88.8713 43.0897 89.7425 43.958 90.9406 43.958C92.0297 43.958 93.0099 43.0897 93.0099 41.8957Z" fill="#1F1887"/>
<path d="M95.297 43.6323L96.1683 43.3067C96.2772 43.7409 96.7128 43.958 97.2574 43.958C97.802 43.958 98.1287 43.6323 98.1287 43.1982C98.1287 42.764 97.8019 42.547 97.1485 42.3299C96.1683 42.0043 95.6237 41.4616 95.6237 40.5933C95.6237 39.6164 96.3861 39.0737 97.2574 39.0737C97.9109 39.0737 98.6732 39.5079 98.8911 39.942L98.0198 40.3762C97.9109 40.0506 97.5841 39.942 97.1485 39.942C96.7128 39.942 96.3861 40.1591 96.3861 40.5933C96.3861 41.0274 96.7128 41.2445 97.3663 41.5701C98.1287 41.8957 98.8911 42.2213 98.8911 43.1982C98.8911 44.175 98.1287 44.8263 97.1485 44.8263C96.3861 44.8263 95.5148 44.2836 95.297 43.6323Z" fill="#1F1887"/>
<path d="M65.6732 50.7959L64.9109 52.6411H64.4752L66.6534 47.5398L68.8317 52.6411H68.396L67.6336 50.9045V50.7959L66.6534 48.4081L65.6732 50.7959ZM65.4554 50.6874H67.7425L67.8515 51.013H65.3465L65.4554 50.6874Z" fill="#1F1887"/>
<path d="M69.8118 47.2141V52.7496H69.4851V47.2141H69.8118Z" fill="#1F1887"/>
<path d="M71.2277 47.2141V52.7496H70.901V47.2141H71.2277Z" fill="#1F1887"/>
<path d="M72.4257 47.7567C72.4257 47.7567 72.5346 47.6482 72.6435 47.6482C72.7524 47.6482 72.7524 47.6482 72.8613 47.7567C72.8613 47.7567 72.9702 47.8653 72.9702 47.9738C72.9702 48.0823 72.9702 48.0823 72.8613 48.1909C72.8613 48.1909 72.7524 48.2994 72.6435 48.2994C72.5346 48.2994 72.5346 48.2994 72.4257 48.1909C72.4257 48.1909 72.3168 48.0823 72.3168 47.9738C72.4257 47.8653 72.4257 47.8653 72.4257 47.7567ZM72.8613 49.4933V52.7495H72.5346V49.4933H72.8613Z" fill="#1F1887"/>
<path d="M73.9505 50.1445C74.0594 49.9275 74.2772 49.7104 74.495 49.6018C74.7129 49.4933 75.0396 49.3848 75.2574 49.3848C75.5842 49.3848 75.802 49.4933 76.0198 49.6018C76.2376 49.7104 76.3465 49.9275 76.4554 50.2531C76.5643 50.4701 76.6733 50.7958 76.6733 51.1214C76.6733 51.447 76.5643 51.7726 76.4554 51.9897C76.3465 52.2068 76.1287 52.4238 76.0198 52.6409C75.802 52.7495 75.5842 52.858 75.2574 52.858C74.9307 52.858 74.7129 52.7495 74.495 52.6409C74.2772 52.5324 74.0594 52.3153 73.9505 52.0982C73.8416 51.8811 73.7327 51.5555 73.7327 51.2299C73.7327 50.6872 73.8416 50.4701 73.9505 50.1445ZM74.2772 51.7726C74.3861 51.9897 74.495 52.0982 74.7129 52.2068C74.9307 52.3153 75.1485 52.3153 75.3663 52.3153C75.5842 52.3153 75.802 52.2068 75.9109 52.0982C76.0198 51.9897 76.2376 51.7726 76.3465 51.6641C76.4554 51.447 76.4554 51.2299 76.4554 51.0128C76.4554 50.7958 76.3465 50.4702 76.3465 50.3616C76.2376 50.1445 76.1287 50.036 75.9109 49.9275C75.6931 49.8189 75.5842 49.7104 75.3663 49.7104C75.1485 49.7104 74.9307 49.7104 74.7129 49.8189C74.495 49.9275 74.3861 50.036 74.2772 50.2531C74.1683 50.4701 74.0594 50.6872 74.0594 51.0128C74.0594 51.3385 74.1683 51.5555 74.2772 51.7726ZM76.8911 49.4933V52.7495H76.5644V49.4933H76.8911Z" fill="#1F1887"/>
<path d="M79.8317 49.9276C79.7228 49.8191 79.505 49.7105 79.2872 49.7105C79.0693 49.7105 78.9604 49.7105 78.7426 49.8191C78.6337 49.9276 78.5248 50.0361 78.4159 50.1447C78.307 50.2532 78.307 50.4703 78.307 50.6874V52.6411H77.9802V49.3849H78.307V50.0361C78.4159 49.8191 78.5248 49.602 78.7426 49.4934C78.9604 49.3849 79.1782 49.2764 79.3961 49.2764C79.7228 49.2764 79.9406 49.3849 80.1584 49.602C80.3763 49.8191 80.3763 50.1447 80.3763 50.4703V52.6411H80.0495V50.5788C80.0495 50.3617 79.9406 50.1447 79.8317 49.9276Z" fill="#1F1887"/>
<path d="M81.792 51.7727C81.9009 51.9898 82.0098 52.0984 82.2276 52.2069C82.4455 52.3154 82.6633 52.424 82.8811 52.424C83.0989 52.424 83.2078 52.424 83.3167 52.3154C83.4257 52.3154 83.6435 52.2069 83.7524 52.0984C83.8613 51.9898 83.9702 51.8813 83.9702 51.8813V52.3154C83.8613 52.424 83.7524 52.5325 83.5346 52.6411C83.3167 52.7496 83.0989 52.7496 82.8811 52.7496C82.5544 52.7496 82.2276 52.6411 82.0098 52.5325C81.792 52.424 81.5742 52.2069 81.4653 51.8813C81.3564 51.6642 81.2474 51.3386 81.2474 51.013C81.2474 50.6874 81.3564 50.3617 81.4653 50.1447C81.5742 49.9276 81.792 49.7105 82.0098 49.4934C82.2276 49.3849 82.5544 49.2764 82.8811 49.2764C83.0989 49.2764 83.3167 49.2764 83.5346 49.3849C83.7524 49.4934 83.8613 49.602 83.9702 49.7105V50.1447C83.9702 50.0361 83.8613 49.9276 83.7524 49.9276C83.6435 49.8191 83.5346 49.8191 83.3167 49.7105C83.2078 49.7105 82.99 49.602 82.8811 49.602C82.6633 49.602 82.4455 49.7105 82.2276 49.8191C82.0098 49.9276 81.9009 50.1447 81.792 50.2532C81.6831 50.4703 81.5742 50.6874 81.5742 50.9044C81.5742 51.1215 81.6831 51.5557 81.792 51.7727Z" fill="#1F1887"/>
<path d="M85.3862 52.5324C85.1683 52.4238 84.9505 52.2068 84.8416 51.8811C84.7327 51.6641 84.6238 51.3385 84.6238 51.0128C84.6238 50.6872 84.7327 50.3616 84.8416 50.1445C84.9505 49.9275 85.1683 49.7104 85.3862 49.6018C85.604 49.4933 85.9307 49.3848 86.1485 49.3848C86.4753 49.3848 86.6931 49.4933 86.9109 49.6018C87.1287 49.7104 87.3466 49.9275 87.4555 50.1445C87.5644 50.3616 87.6733 50.6872 87.6733 51.0128V51.1214V51.2299H84.9505V50.9043H87.4555L87.3466 51.1214V51.0128V50.9043C87.3466 50.6872 87.3466 50.4702 87.2376 50.3616C87.1287 50.1445 87.0198 50.036 86.802 49.9275C86.5842 49.8189 86.4753 49.8189 86.2574 49.8189C86.0396 49.8189 85.8218 49.9275 85.604 50.036C85.3862 50.1445 85.2772 50.2531 85.1683 50.4701C85.0594 50.6872 85.0594 50.9043 85.0594 51.2299C85.0594 51.5555 85.0594 51.7726 85.1683 51.9897C85.2772 52.2068 85.3862 52.3153 85.604 52.4238C85.8218 52.5324 86.0396 52.6409 86.2574 52.6409C86.4753 52.6409 86.6931 52.5324 86.9109 52.5324C87.1287 52.4238 87.2376 52.2068 87.4555 51.9897L87.7822 52.2068C87.5644 52.5324 87.3466 52.7495 87.1287 52.858C86.9109 52.9665 86.5842 53.0751 86.2574 53.0751C85.9307 52.7495 85.604 52.6409 85.3862 52.5324Z" fill="#1F1887"/>
<path d="M64.3663 15.1953H66.6535C68.9406 15.1953 70.7921 17.0405 70.7921 19.3198C70.7921 21.5991 68.9406 23.4442 66.6535 23.4442H64.3663V15.1953ZM66.6535 22.5759C68.5049 22.5759 69.9208 21.1649 69.9208 19.3198C69.9208 17.4746 68.5049 16.0636 66.6535 16.0636H65.2376V22.5759H66.6535Z" fill="#1F1887"/>
<path d="M69.5941 28.5454C69.5941 29.8479 68.6139 30.8247 67.3069 30.8247H65.2376V34.515H64.3663V26.2661H67.3069C68.6139 26.2661 69.5941 27.243 69.5941 28.5454ZM68.7228 28.5454C68.7228 27.6771 68.0693 27.1344 67.198 27.1344H65.2376V30.065H67.198C68.0693 29.9564 68.7228 29.4137 68.7228 28.5454Z" fill="#1F1887"/>
<path d="M36.3762 0L0 16.2808V65.7742L14.2673 74.8915L50.5347 58.6107V9.22576L36.3762 0ZM14.2673 59.3705V25.398L36.3762 14.8698V49.1679L14.2673 59.3705Z" fill="#2A18A3"/>
<path d="M36.3762 0V14.9783L14.2673 25.398L0 16.2808L36.3762 0Z" fill="#3128B3"/>
<path d="M14.2673 75L0 65.7742V16.2808L14.2673 25.398V75Z" fill="#1F1887"/>
<path d="M36.3762 0V49.2764L50.5346 58.7192V9.22576L36.3762 0Z" fill="#2A18A3"/>
<path d="M14.2673 75L50.5347 58.7192L36.3762 49.2764L14.2673 59.3704V75Z" fill="#3128B3"/>
<path d="M36.4851 49.2765L50.6435 58.7193V42.7642L36.4851 49.2765Z" fill="#87DAE1"/>
</svg>
