<svg width="200" height="40" viewBox="0 0 200 40" fill="none" xmlns="http://www.w3.org/2000/svg">
<path d="M40 0H0V40H40V0Z" fill="url(#paint0_radial_222_88)"/>
<path d="M50.6188 27.9478H49.3159V34.6579H50.6188V27.9478Z" fill="#25ACE1"/>
<path d="M54.3322 33.5504C54.9837 33.5504 55.5049 33.3549 55.5049 32.6383C55.5049 31.9217 54.9837 31.6611 54.3322 31.6611H53.1596V33.5504H54.3322ZM54.2019 30.7491C54.9185 30.7491 55.1791 30.4233 55.1791 29.9022C55.1791 29.381 54.8534 29.0552 54.0716 29.0552H53.2247V30.7491H54.2019V30.7491ZM51.7915 34.6579V27.9478H54.3322C55.7003 27.9478 56.4821 28.4689 56.4821 29.7067C56.4821 30.8793 55.7654 31.0748 55.4397 31.0748C55.8957 31.0748 56.9381 31.4657 56.9381 32.7035C56.9381 34.0715 55.8306 34.5927 54.5928 34.5927H51.7915V34.6579Z" fill="#25ACE1"/>
<path d="M59.9348 31.1399C60.7166 31.1399 61.3029 30.7491 61.3029 30.0976C61.3029 29.4461 60.8469 29.0552 60.0651 29.0552H59.0879V31.2051H59.9348V31.1399ZM63.3225 34.5927C63.3225 34.5927 63.0619 34.6579 62.6058 34.6579C60.5863 34.6579 61.1075 32.1171 59.7394 32.1171H59.0228V34.5927H57.7198V27.9478H60.0651C61.6938 27.9478 62.6058 28.5341 62.6058 30.0324C62.6058 31.0096 61.9544 31.5308 61.4332 31.7263C62.1498 32.3126 62.1498 33.6155 63.0619 33.6155H63.3225V34.5927V34.5927Z" fill="#25ACE1"/>
<path d="M66.1238 33.5504C67.1661 33.5504 67.8828 32.8337 67.8828 31.4005C67.8828 29.9022 67.2313 29.0552 65.8632 29.0552H65.2769V33.6155H66.1238V33.5504ZM63.9088 34.6579V27.9478H65.8632C67.6222 27.9478 69.1857 28.925 69.1857 31.4005C69.1857 33.8109 67.7525 34.6579 66.1238 34.6579H63.9088V34.6579Z" fill="#25ACE1"/>
<path d="M73.0945 33.0945C72.3779 33.0945 71.8567 32.5733 71.8567 31.8567C71.8567 31.1401 72.3779 30.6189 73.0945 30.6189C73.8111 30.6189 74.3323 31.1401 74.3323 31.8567C74.3323 32.5733 73.8111 33.0945 73.0945 33.0945Z" fill="#25ACE1"/>
<path d="M78.6319 27.9478H77.329V34.6579H78.6319V27.9478Z" fill="#25ACE1"/>
<path d="M82.0847 33.5504C83.127 33.5504 83.8437 32.8337 83.8437 31.4005C83.8437 29.9022 83.1922 29.0552 81.8241 29.0552H81.1726V33.6155H82.0847V33.5504ZM79.8046 34.6579V27.9478H81.759C83.5179 27.9478 85.0814 28.925 85.0814 31.4005C85.0814 33.8109 83.6482 34.6579 82.0196 34.6579H79.8046V34.6579Z" fill="#25ACE1"/>
<path d="M87.4266 31.9868H89.1204L88.2735 29.5764L87.4266 31.9868ZM89.4462 32.964H87.1009L86.5146 34.6579H85.1465L87.6221 27.9478H88.9901L91.4657 34.6579H90.0976L89.4462 32.964Z" fill="#25ACE1"/>
<path d="M45.7981 11.7263H55.7655V13.7459H52.1173V23.9739H49.5114V13.7459H45.7981V11.7263Z" fill="#0C3557"/>
<path d="M57.1335 23.9739V11.7263H59.8046V16.5472H64.43V11.7263H67.101V23.9739H64.43V18.6319H59.8046V23.9739H57.1335Z" fill="#0C3557"/>
<path d="M69.2509 11.7263H77.4593V13.7459H71.8567V16.6123H77.1336V18.697H71.8567V21.9543H77.6548V23.9739H69.2509V11.7263Z" fill="#0C3557"/>
<path d="M90.5537 11.7263H93.4853L95.6351 20.9771H95.7002L97.6546 11.7263H100.195L97.0683 23.9739H94.1367L91.9217 14.6579H91.8566L89.5113 23.9739H86.5146L83.5178 11.7263H86.254L88.1432 20.9771L90.5537 11.7263Z" fill="#0C3557"/>
<path d="M103.844 17.8502C103.844 19.9349 104.365 22.3453 106.906 22.3453C109.511 22.3453 109.967 19.9349 109.967 17.8502C109.967 15.7655 109.446 13.3551 106.906 13.3551C104.365 13.3551 103.844 15.7655 103.844 17.8502ZM101.042 17.8502C101.042 14.202 102.866 11.4658 106.906 11.4658C110.945 11.4658 112.769 14.2671 112.769 17.8502C112.769 21.4984 110.945 24.2345 106.906 24.2345C102.866 24.2345 101.042 21.4984 101.042 17.8502Z" fill="#0C3557"/>
<path d="M117.199 17.0032H119.414C120.586 17.0032 121.238 16.4169 121.238 15.3094C121.238 14.2019 120.586 13.7459 119.414 13.7459H117.199V17.0032ZM117.199 23.9739H114.593V11.7263H119.805C121.889 11.7263 124.039 12.4429 124.039 14.9185C124.039 16.482 122.997 17.5895 121.498 17.9152V17.9804C123.518 18.1758 123.518 19.4136 123.713 21.1074C123.844 21.8892 123.909 23.3224 124.43 24.039H121.498C121.303 22.9315 121.173 21.824 121.042 20.7165C120.977 20.0651 120.782 19.0879 119.935 19.0879H117.134V23.9739H117.199Z" fill="#0C3557"/>
<path d="M126.059 23.9739V11.7263H128.73V21.9543H134.006V23.9739H126.059Z" fill="#0C3557"/>
<path d="M138.046 21.9543H139.414C142.541 22.0195 142.997 19.8045 142.997 17.8501C142.997 15.8957 142.541 13.7459 139.414 13.7459H138.046V21.9543ZM135.44 11.7263H139.609C143.453 11.7263 145.798 13.6156 145.798 17.8501C145.798 22.0846 143.388 24.039 139.609 23.9739H135.44V11.7263Z" fill="#0C3557"/>
<path d="M157.199 16.6776C158.306 16.6776 158.892 16.2216 158.892 15.2444C158.892 14.2672 158.306 13.8112 157.199 13.8112H155.114V16.6776H157.199ZM157.199 21.9545C158.436 21.9545 159.283 21.759 159.283 20.3258C159.283 18.8926 158.436 18.6971 157.199 18.6971H155.114V21.9545H157.199ZM152.508 23.974V11.7265H157.133C159.348 11.5962 161.563 12.5082 161.563 14.9186C161.563 16.2867 160.651 17.1988 159.414 17.5897C160.977 17.9154 162.085 18.9577 162.085 20.7818C162.085 23.1923 159.023 24.1043 157.133 23.974H152.508Z" fill="#0C3557"/>
<path d="M170.489 19.3485L168.795 14.1367H168.73L166.906 19.3485H170.489ZM162.866 23.9739L167.296 11.7263H170.423L174.658 23.9739H171.987L171.075 21.368H166.189L165.277 23.9739H162.866Z" fill="#0C3557"/>
<path d="M183.388 23.9739L178.567 13.811H178.502V23.9739H176.026V11.7263H179.935L184.625 21.368V11.7263H187.101V23.9739H183.388Z" fill="#0C3557"/>
<path d="M191.922 17.0032L196.026 11.7263H199.088L194.593 17.1986L199.479 23.9739H196.222L191.922 17.7198V23.9739H189.251V11.7263H191.922V17.0032Z" fill="#0C3557"/>
<defs>
<radialGradient id="paint0_radial_222_88" cx="0" cy="0" r="1" gradientUnits="userSpaceOnUse" gradientTransform="translate(38.2492 7.44225) scale(33.11)">
<stop stop-color="white"/>
<stop offset="0.3803" stop-color="#5CC4E9"/>
<stop offset="0.544" stop-color="#1BACE0"/>
<stop offset="0.5892" stop-color="#199CCD"/>
<stop offset="0.7253" stop-color="#136F9A"/>
<stop offset="0.844" stop-color="#0F4F75"/>
<stop offset="0.9396" stop-color="#0D3B5E"/>
<stop offset="1" stop-color="#0C3456"/>
</radialGradient>
</defs>
</svg>
