<svg width="204" height="39" viewBox="0 0 204 39" fill="none" xmlns="http://www.w3.org/2000/svg">
<path d="M51.0992 30.3333V0.787842H60.3269L72.3327 23.5378V0.787842H78.6829V30.3333H69.4553L57.4494 7.5833V30.3333H51.0992Z" fill="black"/>
<path d="M93.5662 30.9243C92.0779 30.9243 90.6888 30.6289 89.2997 30.1364C87.9105 29.644 86.7199 28.8561 85.7277 27.8713C84.7355 26.8864 83.8425 25.7046 83.2471 24.3258C82.6518 22.9471 82.3541 21.3713 82.3541 19.7955C82.3541 18.1213 82.6518 16.644 83.2471 15.2652C83.8425 13.8864 84.7355 12.7046 85.7277 11.7198C86.7199 10.7349 88.0098 9.94705 89.2997 9.45463C90.6888 8.9622 92.0779 8.66675 93.5662 8.66675C95.0545 8.66675 96.4436 8.9622 97.8327 9.45463C99.2218 9.94705 100.412 10.7349 101.405 11.7198C102.397 12.7046 103.29 13.8864 103.885 15.2652C104.481 16.644 104.778 18.2198 104.778 19.7955C104.778 21.4698 104.481 22.9471 103.885 24.3258C103.29 25.7046 102.397 26.8864 101.405 27.8713C100.412 28.8561 99.1226 29.644 97.8327 30.1364C96.4436 30.6289 95.0545 30.9243 93.5662 30.9243ZM93.5662 25.4092C95.0545 25.4092 96.2452 24.9167 97.3366 23.9319C98.4281 22.9471 98.9242 21.5683 98.9242 19.6971C98.9242 17.8258 98.4281 16.4471 97.3366 15.4622C96.2452 14.4774 95.0545 13.9849 93.5662 13.9849C92.0779 13.9849 90.8872 14.4774 89.7958 15.4622C88.7043 16.4471 88.2082 17.8258 88.2082 19.6971C88.2082 21.5683 88.7043 22.9471 89.7958 23.9319C90.8872 24.9167 92.0779 25.4092 93.5662 25.4092Z" fill="black"/>
<path d="M107.656 30.3332V9.06049H113.609V14.6741C114.006 12.9014 114.7 11.4241 115.792 10.4393C116.784 9.45443 118.074 8.86353 119.562 8.86353H121.646V15.9544H113.609V30.3332H107.656V30.3332Z" fill="black"/>
<path d="M129.088 30.3333L124.027 9.06055H130.377L133.949 25.3105L137.819 9.06055H145.658L150.023 25.2121L153.298 9.06055H159.449L154.389 30.3333H145.856L141.689 14.5757L137.918 30.3333H129.088Z" fill="black"/>
<path d="M166.395 30.7273C165.403 30.7273 164.41 30.5303 163.617 30.2349C162.823 29.9394 162.128 29.447 161.533 28.8561C160.938 28.2652 160.541 27.5758 160.243 26.7879C159.946 26 159.747 25.2122 159.747 24.3258C159.747 22.3561 160.541 20.7803 162.029 19.5C163.518 18.2197 165.601 17.6288 168.379 17.6288H173.34V16.25C173.34 15.2652 173.043 14.5758 172.447 14.0834C171.852 13.5909 170.959 13.394 169.868 13.394C168.776 13.394 167.982 13.5909 167.486 14.0834C166.99 14.5758 166.693 15.0682 166.693 15.8561H160.739C160.938 14.8712 161.235 13.8864 161.732 13C162.228 12.1137 162.823 11.3258 163.617 10.6364C164.41 9.947 165.403 9.45457 166.494 9.06064C167.586 8.6667 168.875 8.46973 170.265 8.46973C171.554 8.46973 172.646 8.6667 173.837 8.96215C174.928 9.25761 175.92 9.75003 176.714 10.3409C177.508 10.9318 178.202 11.6212 178.599 12.5076C179.095 13.394 179.294 14.3788 179.294 15.4622V30.4318H173.34V26.8864C172.547 27.9697 171.554 28.8561 170.364 29.644C169.173 30.3334 167.883 30.7273 166.395 30.7273ZM169.074 25.5076C169.868 25.5076 170.661 25.4091 171.356 25.3106C172.051 25.2122 172.745 25.0152 173.241 24.8182V21.8637H167.883C167.189 21.8637 166.593 21.9622 166.196 22.2576C165.8 22.5531 165.601 22.947 165.601 23.5379C165.601 24.1288 165.899 24.6212 166.395 24.9167C167.089 25.4091 167.883 25.5076 169.074 25.5076Z" fill="black"/>
<path d="M187.728 30.3333L181.08 9.06055H187.529L192.193 25.9015L197.253 9.06055H203.306L193.979 38.2121H187.926L190.506 30.3333H187.728V30.3333Z" fill="black"/>
<path d="M42.4669 0H0V31.1212H42.4669V0Z" fill="white"/>
<path d="M41.7724 19.2046H19.4475V30.2349H41.7724V19.2046Z" fill="#C8102E"/>
<path d="M41.7724 0.787842H19.4475V11.9166H41.7724V0.787842Z" fill="#C8102E"/>
<path d="M11.9067 0.787842H0.793823V11.9166H11.9067V0.787842Z" fill="#C8102E"/>
<path d="M41.7724 13.6894V17.4318H17.5623V30.3333H13.7919V17.4318H0.793823V13.6894H13.7919V0.787842H17.5623V13.6894H41.7724Z" fill="#00205B"/>
<path d="M11.9067 19.2046H0.793823V30.2349H11.9067V19.2046Z" fill="#C8102E"/>
</svg>
