<svg width="39" height="80" viewBox="0 0 39 80" fill="none" xmlns="http://www.w3.org/2000/svg">
<g clip-path="url(#clip0_219_81)">
<path d="M18.8955 40.1245H0.0195312V59.0005H18.8955V40.1245Z" fill="#0468B1"/>
<path d="M4.81006 43.2185V50.6415C4.81006 54.5415 6.76005 56.03 9.36005 56.03C12.09 56.03 14.1245 54.457 14.1245 50.583V43.2185H12.454V50.7C12.454 53.469 11.2385 54.704 9.39255 54.704C7.70255 54.704 6.45456 53.5015 6.45456 50.7V43.2185H4.81006Z" fill="white"/>
<path d="M38.935 40.1245H20.059V59.0005H38.935V40.1245Z" fill="#0468B1"/>
<path d="M26.299 55.8999V50.4854C26.299 48.3859 26.299 46.8714 26.1885 45.2854H26.247C26.9401 46.7301 27.7261 48.1284 28.6 49.4714L32.5845 55.8999H34.229V43.2639H32.7015V48.5549C32.7015 50.5049 32.7015 52.0324 32.8835 53.7159H32.825C32.1756 52.2994 31.4262 50.931 30.5825 49.6209L26.5655 43.2444H24.7715V55.8999H26.299Z" fill="white"/>
<path d="M38.935 60.1575H20.059V79.0335H38.935V60.1575Z" fill="#0468B1"/>
<path d="M32.6885 64.2134C31.9345 63.5634 30.7385 63.1669 29.1525 63.1669C28.1045 63.156 27.0578 63.2431 26.026 63.4269V75.8614H27.651V70.8499C28.0788 70.9357 28.5149 70.9728 28.951 70.9604C29.6566 71.0001 30.363 70.8954 31.0268 70.653C31.6907 70.4105 32.2981 70.0348 32.812 69.5499C33.1516 69.1898 33.4143 68.7647 33.5841 68.2993C33.754 67.8346 33.8275 67.3399 33.8 66.8459C33.8118 66.3578 33.718 65.8722 33.525 65.4237C33.3321 64.9751 33.0446 64.5733 32.682 64.2459" fill="white"/>
<path d="M29.003 69.6931C28.5488 69.7035 28.095 69.6599 27.651 69.5631V64.6621C28.1575 64.5734 28.6709 64.5299 29.185 64.5321C30.979 64.5321 32.162 65.3316 32.162 67.0216C32.162 68.7116 30.979 69.6931 29.003 69.6931Z" fill="#0468B1"/>
<path d="M18.876 60.177H0V79.053H18.876V60.177Z" fill="#0468B1"/>
<path d="M13.273 64.701C12.168 63.674 10.504 63.1475 8.17055 63.1475C7.00438 63.149 5.83996 63.2359 4.68652 63.4075V75.8095C5.67479 75.9206 6.66918 75.9681 7.66355 75.9525C10.114 75.9525 12.0575 75.3025 13.2535 74.1455C13.8659 73.4896 14.3416 72.7187 14.653 71.8776C14.9643 71.0359 15.1051 70.1408 15.067 69.2445C15.1176 68.4014 14.9831 67.5571 14.6733 66.7712C14.3634 65.9854 13.8855 65.2762 13.273 64.6945" fill="white"/>
<path d="M7.98202 74.6525C7.43264 74.6713 6.88268 74.6454 6.33752 74.5745V64.61C6.96451 64.4858 7.60294 64.4291 8.24202 64.441C11.6805 64.441 13.3705 66.2935 13.351 69.303C13.351 72.7025 11.4595 74.6655 7.98202 74.6525Z" fill="#0468B1"/>
<path d="M38.9545 0H0.0195312V38.9415H38.9545V0Z" fill="#0468B1"/>
<path d="M33.4165 20.2737C32.8705 21.0472 32.214 21.7687 31.707 22.5552C31.8235 21.8946 31.7857 21.2161 31.5965 20.5727C31.1373 19.2943 30.834 17.9652 30.693 16.6142V16.0812C31.0115 17.5112 32.4155 18.4927 32.3245 20.0917C32.327 20.4486 32.2744 20.8038 32.1685 21.1447L32.2335 21.0732C32.3895 20.2776 32.6068 19.4952 32.8835 18.7332C33.3385 17.6802 33.9105 16.6207 33.683 15.3467C34.0008 16.1336 34.1406 16.9812 34.0922 17.8285C34.0439 18.6758 33.8087 19.5019 33.4035 20.2477" fill="white"/>
<path d="M32.552 12.194C33.014 12.8685 33.298 13.6489 33.3775 14.4625C33.4571 15.2762 33.3296 16.0968 33.007 16.848C32.7552 17.4745 32.5806 18.1293 32.487 18.798C32.435 18.681 32.4285 18.525 32.383 18.395C32.019 17.004 30.6995 16.003 30.1535 14.69C29.9754 14.2564 29.8426 13.8055 29.757 13.3445C30.3355 14.417 31.7655 14.9695 32.1555 16.1525C32.2736 16.4764 32.3564 16.812 32.4025 17.1535C32.4135 17.1536 32.4242 17.1498 32.4326 17.1426C32.4409 17.1354 32.4464 17.1255 32.448 17.1145C32.2937 15.8765 32.3112 14.6232 32.5 13.39C32.5454 12.7633 32.3931 12.1381 32.0645 11.6025C32.2985 11.7325 32.4025 11.9925 32.5585 12.194" fill="white"/>
<path d="M31.9085 11.96C32.149 13.0455 31.798 14.1115 32.019 15.21C31.4275 14.04 30.1665 13.494 29.302 12.558C28.8344 12.0055 28.5404 11.3271 28.457 10.608C28.951 11.804 30.29 12.0705 31.057 13.0715C31.2676 13.3188 31.4387 13.5973 31.564 13.897C31.1939 12.9148 30.8962 11.9068 30.6735 10.881C30.5061 10.4272 30.2074 10.0335 29.8155 9.75C30.3309 9.90255 30.7963 10.1895 31.1641 10.5812C31.5319 10.973 31.7888 11.4556 31.9085 11.9795" fill="white"/>
<path d="M29.211 9.45772C29.8936 10.1262 30.3485 10.9927 30.511 11.9342L30.6345 12.2202C29.5174 11.4132 28.5644 10.4006 27.8265 9.23672L26.962 8.36572C27.7609 8.59764 28.5132 8.96717 29.185 9.45772" fill="white"/>
<path d="M14.7745 8.61263C16.2458 7.89002 17.8609 7.50795 19.5 7.49463C21.4574 7.50204 23.3729 8.06169 25.0264 9.10916C26.6799 10.1567 28.0042 11.6496 28.847 13.4161C29.9512 15.6851 30.1825 18.2807 29.497 20.7091C29.0509 22.2956 28.2364 23.7542 27.1199 24.9662C26.0034 26.1783 24.6163 27.1095 23.0718 27.6841C21.5273 28.2587 19.8689 28.4605 18.2316 28.2729C16.5944 28.0853 15.0246 27.5137 13.65 26.6046C12.142 25.5833 10.9269 24.1859 10.1248 22.5507C9.3228 20.9155 8.96166 19.0991 9.07723 17.2815C9.1928 15.4639 9.78105 13.7079 10.7837 12.1874C11.7864 10.667 13.1689 9.43475 14.794 8.61263" fill="white"/>
<path d="M11.778 8.5083C11.0692 9.20127 10.4452 9.97587 9.91897 10.8158C9.37843 11.3825 8.79844 11.9104 8.18347 12.3953C8.49547 11.7453 8.50847 10.9848 8.95047 10.3933C9.60047 9.2948 10.7445 8.9113 11.778 8.5083Z" fill="white"/>
<path d="M7.60502 10.8354C7.95056 10.3892 8.43195 10.0675 8.97652 9.91895C7.94952 10.6274 8.01452 11.8689 7.67652 12.9414C7.57252 13.3314 7.39052 13.6889 7.29952 14.0919H7.33202C7.51935 13.621 7.80522 13.1954 8.17052 12.8439C8.90502 12.1939 9.98402 11.7519 10.3415 10.7574C10.3415 12.1419 9.17152 13.2274 8.06652 14.0074C7.59832 14.3863 7.20767 14.852 6.91602 15.3789C6.91602 15.0279 6.97452 14.6769 6.94852 14.3064C6.82502 13.0974 6.74052 11.7064 7.59852 10.8159" fill="white"/>
<path d="M5.52495 14.9498C5.53097 13.7932 5.95586 12.6778 6.72097 11.8103C6.72097 11.8103 6.75347 11.7778 6.77947 11.7778C5.99295 12.9803 6.64297 14.4883 6.61047 15.8533L6.49995 17.2768C6.49995 17.2768 6.49995 17.3288 6.55197 17.3093C6.59065 17.151 6.61886 16.9903 6.63647 16.8283C6.82497 15.7038 7.79997 14.8783 8.65797 14.1243C8.83926 13.9342 8.98655 13.7143 9.09347 13.4743C9.01677 14.0428 8.85687 14.5969 8.61897 15.1188C7.96897 16.4188 6.72097 17.4783 6.49995 18.9603C6.39595 17.5498 5.42745 16.4838 5.52495 14.9498Z" fill="white"/>
<path d="M4.92696 16.7181C4.99552 16.335 5.10446 15.9603 5.25196 15.6001C4.93346 17.2186 6.02546 18.3821 6.38296 19.7926C6.48443 20.3263 6.6168 20.8537 6.77943 21.3721C6.77943 21.3721 6.81843 21.3721 6.83143 21.3721C6.29846 19.8771 7.06543 18.4926 7.83893 17.3226C8.01839 17.0012 8.14982 16.6551 8.22893 16.2956C8.25532 17.0178 8.19194 17.7405 8.04043 18.4471C7.85193 19.3376 7.57243 20.1826 7.33193 21.0471C7.2003 21.6058 7.18704 22.1859 7.29293 22.7501L7.21493 22.6851C6.64943 21.6256 5.53146 20.8001 5.19996 19.6691C4.87774 18.7207 4.7842 17.7095 4.92696 16.7181Z" fill="white"/>
<path d="M4.87501 19.8834C4.99851 21.5994 6.82498 22.4834 7.70248 23.9264C7.8889 24.2341 8.10672 24.5217 8.35248 24.7844C8.30698 24.6024 8.14448 24.4464 8.07948 24.2579C7.77879 23.627 7.66166 22.9242 7.74148 22.2299C7.82598 21.3524 8.18998 20.5399 8.05348 19.6299C8.80748 21.2549 8.57998 23.2764 8.99598 25.0379C9.13749 25.4099 9.29804 25.7744 9.47698 26.1299C7.92998 25.0639 5.85001 24.0499 5.13501 22.1324C4.87401 21.4133 4.78497 20.6431 4.87501 19.8834Z" fill="white"/>
<path d="M5.79797 23.8224C6.66245 25.7724 8.82045 25.9349 10.2699 27.1244C10.5212 27.3565 10.8061 27.5494 11.1149 27.6964C10.7548 27.3939 10.4397 27.0415 10.1789 26.6499C9.33395 25.4734 9.63295 23.8224 8.99595 22.5549C9.57698 23.2155 10.0647 23.9525 10.4454 24.7454C10.9654 26.0454 11.1604 27.4624 12.3629 28.4309C11.0629 28.0019 9.54195 28.1254 8.39795 27.3259C7.74756 26.9515 7.18108 26.4472 6.73375 25.8445C6.2865 25.2418 5.96796 24.5535 5.79797 23.8224Z" fill="white"/>
<path d="M8.01453 27.4624C9.39253 29.0354 11.6545 28.5089 13.494 28.9184C13.7454 28.9896 14.0062 29.0225 14.2675 29.0159C14.0465 28.8794 13.7475 28.8924 13.507 28.7689C12.064 28.2554 11.8495 26.6954 11.063 25.6489C12.0527 26.3777 12.9789 27.1887 13.832 28.0734C14.4952 28.6113 15.2892 28.9635 16.133 29.0939C15.9315 29.1654 15.665 29.1459 15.4505 29.2044C13.9425 29.5749 12.259 30.1859 10.6535 29.6399C9.53052 29.2732 8.58783 28.4953 8.01453 27.4624Z" fill="white"/>
<path d="M26.767 31.1219C25.2135 31.7069 23.5885 31.1219 22.373 30.1729C21.879 29.8609 21.4435 29.4124 20.8065 29.4514C20.5878 29.4391 20.3685 29.4611 20.1565 29.5164C21.3713 30.0839 22.4812 30.8532 23.439 31.7914C23.2577 31.9879 23.0598 32.1684 22.8475 32.3309C21.9292 31.2673 20.8287 30.3759 19.5975 29.6984C19.3668 29.758 19.1473 29.8546 18.9475 29.9844C17.9101 30.608 16.9958 31.4166 16.25 32.3699L15.6 31.8564C16.552 30.8819 17.6702 30.0852 18.902 29.5034C17.719 29.1329 16.952 30.1534 16.0485 30.6279C15.5043 31.0207 14.8736 31.2771 14.2097 31.3756C13.5457 31.474 12.8678 31.4115 12.233 31.1934C11.5185 30.9512 10.8845 30.5172 10.4 29.9389C10.9353 30.2687 11.5404 30.4687 12.1668 30.5229C12.7932 30.5771 13.4236 30.484 14.0075 30.2509C15.5285 29.6009 17.108 28.7559 18.9345 29.1589C19.227 29.1589 19.5065 29.4449 19.773 29.2044C21.1469 28.879 22.5921 29.0614 23.842 29.7179L25.0575 30.1989C25.6352 30.4132 26.255 30.4901 26.8675 30.4236C27.4801 30.357 28.0688 30.1488 28.587 29.8154C28.0978 30.4134 27.4519 30.8634 26.7215 31.1154" fill="white"/>
<path d="M28.4374 29.5166C26.6889 30.1666 24.9274 29.3671 23.2374 29.0941L22.9189 29.0551C23.7326 28.9248 24.4972 28.5817 25.1354 28.0606C25.9996 27.1308 26.9411 26.2763 27.9499 25.5061C27.1764 26.4941 27.0984 27.9046 25.8179 28.5416C25.4809 28.6995 25.1334 28.8341 24.7779 28.9446C25.2325 28.9066 25.6841 28.8393 26.1299 28.7431C27.8459 28.4766 29.8024 28.7431 31.0049 27.2871C30.4585 28.338 29.5268 29.1368 28.4049 29.5166" fill="white"/>
<path d="M29.4061 27.7356C28.5156 27.9761 27.5601 28.0541 26.6891 28.3466C28.1581 27.0856 28.0801 25.1356 29.0616 23.6536C29.346 23.2151 29.6563 22.794 29.9911 22.3926C29.3996 23.5886 29.6531 25.1421 28.9706 26.2926C28.6887 26.7795 28.3311 27.2183 27.9111 27.5926C28.0517 27.5583 28.1814 27.489 28.2881 27.3911C29.3996 26.2796 30.8556 25.9676 32.0581 25.0641C32.5522 24.6915 32.9436 24.1994 33.1956 23.6341C32.9681 25.4736 31.1351 27.2026 29.4061 27.7551" fill="white"/>
<path d="M31.6095 24.5961C30.9205 25.0446 30.225 25.4671 29.5555 25.9806V25.9221C30.576 24.2256 30.0755 21.9051 30.706 20.0721L30.94 19.4221C30.81 20.5791 31.3105 21.5606 31.278 22.7241C31.2362 23.3977 31.0115 24.0472 30.628 24.6026H30.693C31.1475 23.9268 31.6378 23.2758 32.162 22.6526C33.0655 21.7816 33.982 20.8911 34.112 19.6821C34.4175 21.6971 33.2865 23.4651 31.6095 24.6091" fill="white"/>
<path d="M23.803 24.4595L23.8745 24.362C24.204 24.1314 24.5129 23.8726 24.7975 23.5885H24.8365C24.7715 23.5885 24.6935 23.634 24.622 23.5885C24.5617 23.5538 24.5133 23.5018 24.4831 23.4392C24.453 23.3765 24.4424 23.3062 24.453 23.2375L23.803 22.5875L23.764 22.49C23.7109 22.605 23.6306 22.7054 23.53 22.7825C23.53 22.867 23.53 22.9905 23.608 23.049C23.816 23.114 24.0825 23.2505 24.128 23.4975C24.0435 23.725 23.608 23.933 23.8745 24.18C23.9655 24.3035 23.7575 24.349 23.79 24.453" fill="#0468B1"/>
<path d="M20.0914 16.0422C20.2149 16.1072 20.28 15.9837 20.384 15.9577C20.5214 15.9958 20.6424 16.078 20.7284 16.1917C20.8194 16.2307 20.9104 16.1917 20.9949 16.1462C21.0469 15.7172 21.5864 15.7757 21.7489 15.3727L21.6515 15.4117C21.606 15.3532 21.5084 15.3792 21.5084 15.2817C21.5982 15.1828 21.7036 15.0993 21.8204 15.0347C21.3654 14.7427 20.8676 14.5234 20.3449 14.3847C20.1258 14.3585 19.9085 14.3173 19.6949 14.2612C19.7395 14.617 19.7634 14.9751 19.7664 15.3337L20.1369 15.4572C20.2539 15.2817 20.4879 15.2427 20.5919 15.0737C20.6569 15.0152 20.7349 15.0737 20.7869 15.1322C20.7968 15.2735 20.7768 15.4152 20.7284 15.5482C20.5854 15.8277 20.2539 15.8602 20.0784 16.0682" fill="#0468B1"/>
<path d="M25.623 19.5C25.4261 20.215 25.1144 20.8934 24.7 21.5085C24.5597 21.7608 24.3695 21.982 24.141 22.1585L24.609 22.5745C24.609 22.5745 24.609 22.5095 24.609 22.4705C24.609 22.4315 24.609 22.3405 24.713 22.347C24.9405 22.347 24.947 22.5875 25.077 22.711C25.077 22.9125 25.2265 23.0619 25.168 23.2439C26.4324 21.9007 27.1708 20.147 27.248 18.304L27.3195 18.2195C26.8515 18.265 26.3575 18.2195 25.8765 18.2195L25.7985 18.2C25.8006 18.5112 25.7767 18.8221 25.727 19.1295L25.896 19.318C25.9185 19.3552 25.927 19.3993 25.9198 19.4422C25.9127 19.4851 25.8904 19.5241 25.857 19.552C25.8237 19.5783 25.7825 19.5926 25.74 19.5926C25.6975 19.5926 25.6563 19.5783 25.623 19.552" fill="#0468B1"/>
<path d="M24.3749 14.9499C24.1737 14.6202 23.9408 14.3111 23.6794 14.0269V14.0854C23.1984 14.5859 22.6784 15.0994 22.2234 15.6064C22.2486 15.6715 22.2974 15.7249 22.3599 15.7559C22.3599 15.6324 22.4509 15.5219 22.4639 15.3984C22.5874 15.2229 22.7694 15.3334 22.9319 15.3659C23.1781 15.3597 23.4243 15.3793 23.6664 15.4244C23.8549 15.5154 23.8744 15.7559 24.0434 15.8469C24.0623 15.8796 24.0674 15.9185 24.0577 15.9551C24.0479 15.9917 24.0241 16.0229 23.9914 16.0419C24.0434 16.4319 24.2319 15.9379 24.4269 16.0419C24.5114 16.0744 24.6154 16.0419 24.6739 16.1459C24.7324 16.2499 24.9014 16.2824 24.9144 16.4319C24.9274 16.5814 24.8169 16.5294 24.7584 16.5749C24.8104 16.7309 24.6024 16.8284 24.6739 16.9974C24.9729 17.0494 24.9859 16.7049 25.1289 16.5489C25.0705 16.2738 24.9719 16.0088 24.8364 15.7624C24.6674 15.7624 24.5634 15.5284 24.3879 15.4894C24.0564 15.3594 24.4399 15.1514 24.3879 14.9564" fill="#0468B1"/>
<path d="M19.7469 25.7659C20.1586 25.6797 20.5755 25.6211 20.9949 25.5904C20.9049 25.5697 20.8233 25.5221 20.7609 25.4539C20.5204 25.4539 20.4034 25.1874 20.3254 24.9924C20.2474 24.7974 20.3839 24.7389 20.4424 24.6219C20.3384 24.4074 20.0199 24.5634 19.8314 24.4854C19.7794 24.4464 19.7404 24.3814 19.6689 24.3684L19.7469 24.4854C19.7738 24.9183 19.7738 25.3525 19.7469 25.7854" fill="#0468B1"/>
<path d="M20.0785 21.7229C20.215 21.7229 20.1175 21.8919 20.215 21.9439C20.4295 21.8789 20.592 22.1259 20.761 21.9439C20.761 21.7034 21.0275 21.7229 21.177 21.6579C21.3265 21.5929 21.6775 21.3329 21.6515 21.0079L21.6125 20.9624C21.45 20.9624 21.372 21.0859 21.255 21.1834C21.138 21.2809 21.034 21.0274 20.9105 21.0859C20.9152 21.0981 20.9232 21.1088 20.9334 21.1168C20.9438 21.1248 20.956 21.1299 20.969 21.1314C20.969 21.1704 21.008 21.2484 20.969 21.2809C20.787 21.4434 20.709 21.2029 20.54 21.2224V21.2809C20.54 21.3199 20.54 21.3784 20.4815 21.3524C20.371 21.1834 20.163 21.2484 20.059 21.0989C19.994 21.0599 19.929 21.0989 19.8835 21.1509C19.838 21.2029 19.682 21.1509 19.721 21.2744C19.591 21.3199 19.578 21.4564 19.4805 21.5409C19.318 21.5409 19.2465 21.6969 19.097 21.6969C19.097 21.6969 19.097 21.7749 19.1425 21.7814C19.2422 21.8112 19.3484 21.8112 19.448 21.7814C19.604 21.5344 19.8575 21.7424 20.098 21.6514" fill="#0468B1"/>
<path d="M21.6125 19.6951C21.6115 19.7847 21.6413 19.8719 21.697 19.9421C21.8985 19.9096 21.814 20.1891 21.996 20.1696C22.178 20.1501 21.996 20.0461 22.035 19.9811C22.074 19.9161 21.853 19.8056 21.749 19.7146C21.645 19.6236 21.749 19.6561 21.749 19.6301C21.749 19.6041 21.632 19.6301 21.5865 19.6951" fill="#0468B1"/>
<path d="M21.3784 12.5322C20.8334 12.3648 20.2742 12.2473 19.7079 12.1812L19.7599 12.2982V13.7022H19.8964C20.7458 13.7937 21.5522 14.1226 22.2234 14.6512L22.2624 14.7617C22.5295 14.439 22.8161 14.133 23.1204 13.8452L23.3999 13.6502L23.2764 13.5982C22.7232 13.1311 22.0916 12.7658 21.4109 12.5192" fill="#0468B1"/>
<path d="M11.6999 18.3235L11.8104 19.279C11.9052 19.6351 11.9726 19.998 12.0119 20.3645C12.0639 20.2865 12.0119 20.1305 12.1744 20.111C12.1159 20.0005 12.2784 19.903 12.1744 19.8055C12.1843 19.5477 12.2883 19.3025 12.4669 19.1165C12.7334 19.1165 12.7529 18.759 13.0194 18.746C13.1559 18.746 13.2404 18.9215 13.2989 18.98C13.2311 18.863 13.189 18.7329 13.1756 18.5984C13.1622 18.4639 13.1776 18.328 13.2209 18.2L13.1039 18.252C12.6227 18.2706 12.1408 18.2598 11.6609 18.2195L11.6999 18.3235Z" fill="#0468B1"/>
<path d="M21.0275 20.7544C21.151 20.6244 21.4175 20.6244 21.424 20.4424C21.242 20.4424 21.151 20.5139 21.0275 20.6114C21.0275 20.6504 20.956 20.7219 21.0275 20.7544Z" fill="#0468B1"/>
<path d="M24.3296 18.1479L24.4856 18.3104C24.6481 18.4144 24.5441 18.6484 24.7131 18.7459C24.8821 18.8434 24.9861 19.0839 25.0771 19.2594C25.0952 19.2106 25.1104 19.1606 25.1226 19.1099C25.1941 18.8239 25.1811 18.4989 25.2721 18.2194C24.9565 18.2653 24.6346 18.2409 24.3296 18.1479Z" fill="#0468B1"/>
<path d="M22.2365 21.7814C22.412 21.8269 22.5355 22.0479 22.7565 21.9829C22.9775 21.9179 23.2505 22.0414 23.4065 21.8464C23.4065 21.6514 23.5495 21.5149 23.634 21.3459H23.6925C23.7965 21.4564 23.7965 21.6189 23.842 21.7359C23.985 21.5799 24.102 21.4044 24.232 21.2484C24.575 20.7598 24.822 20.2107 24.96 19.6299C24.8212 19.6373 24.6837 19.6613 24.5505 19.7014C24.401 19.7014 24.219 19.7794 24.089 19.7014C23.959 19.6234 24.011 19.7014 24.0175 19.7664C24.024 19.8314 23.9135 19.9419 23.79 19.9094C23.6665 19.8769 23.699 19.7664 23.6665 19.6949C23.6764 19.7486 23.6764 19.8037 23.6665 19.8574C23.568 19.9456 23.4787 20.0436 23.4 20.1499C23.2895 20.2669 23.114 20.2279 23.0035 20.3254C23.0035 20.5724 22.7045 20.5204 22.5485 20.6049C22.5485 20.6049 22.5485 20.6374 22.5875 20.6634C22.6262 20.6785 22.6687 20.6816 22.7093 20.6723C22.7498 20.6631 22.7866 20.6418 22.815 20.6114C23.0295 20.6699 22.984 20.3969 23.114 20.2994C23.244 20.2019 23.322 20.1889 23.4325 20.2669C23.541 20.4171 23.5875 20.6033 23.5625 20.7869C23.4325 20.9104 23.4975 21.1119 23.413 21.2614C23.413 21.4304 23.2245 21.5084 23.2505 21.6839C23.2109 21.7164 23.1652 21.7406 23.1161 21.7551C23.0669 21.7696 23.0154 21.7741 22.9645 21.7684C22.5465 21.611 22.1092 21.5105 21.6645 21.4694C21.6446 21.4778 21.6281 21.4926 21.6175 21.5114C21.6069 21.5302 21.6029 21.552 21.606 21.5734C21.7945 21.6709 22.022 21.6774 22.217 21.7554" fill="#0468B1"/>
<path d="M19.1425 26.3315L19.1945 26.2535L19.0385 26.2925C17.0562 26.2003 15.1753 25.3892 13.7475 24.011V24.0695L12.6815 25.1485C14.2264 26.5412 16.1487 27.4458 18.2065 27.7485C18.5532 27.7692 18.8982 27.8105 19.24 27.872L19.162 27.7485L19.1425 26.3315Z" fill="#0468B1"/>
<path d="M17.0496 20.7349C17.587 21.1821 18.2326 21.4802 18.9216 21.5994C18.9606 21.4564 18.9216 21.2809 18.9736 21.1639C19.0256 21.0469 19.1621 21.0534 19.2726 21.0729C19.2868 21.0699 19.3001 21.0634 19.3113 21.0542C19.3225 21.045 19.3314 21.0331 19.3371 21.0198C19.3428 21.0064 19.3452 20.9919 19.3442 20.9774C19.3432 20.9629 19.3387 20.9488 19.3311 20.9364C19.1816 20.9364 19.2466 20.7414 19.1946 20.6504C19.1426 20.5594 19.2921 20.6049 19.2726 20.5399C19.2531 20.4749 19.3181 20.3644 19.2336 20.2734C19.2336 20.2734 19.2791 20.2279 19.3051 20.2084C18.9931 20.3384 18.6551 20.1499 18.3756 20.0264C18.2391 19.9484 18.0441 19.8704 18.0181 19.7014C17.7247 20.0724 17.4008 20.4181 17.0496 20.7349Z" fill="#0468B1"/>
<path d="M16.5165 19.1164C16.471 19.1164 16.4645 19.1164 16.419 19.1164C16.3735 19.1164 16.3605 19.1164 16.341 19.1164C16.341 18.8174 16.0095 18.9929 15.886 18.8369C16.0355 19.1099 16.107 19.4154 16.263 19.6819C16.419 19.9484 16.562 20.1109 16.653 20.3319C16.7818 20.1495 16.9276 19.9797 17.0885 19.8249C17.1007 19.7523 17.0844 19.6778 17.043 19.6169C16.9975 19.5064 17.043 19.3569 16.952 19.2594C16.822 19.3114 17.004 19.4414 16.952 19.5194C16.9403 19.5258 16.9273 19.5293 16.914 19.5297C16.9006 19.5301 16.8874 19.5273 16.8754 19.5216C16.8633 19.5159 16.8528 19.5074 16.8447 19.4969C16.8365 19.4863 16.831 19.474 16.8285 19.4609C16.7699 19.4465 16.716 19.4174 16.6716 19.3765C16.6274 19.3356 16.5941 19.2841 16.575 19.2269C16.679 19.1619 16.575 19.1359 16.523 19.0839" fill="#0468B1"/>
<path d="M17.5499 19.2661C17.5094 19.3957 17.4354 19.5122 17.3354 19.6041C17.4654 19.5131 17.5499 19.3571 17.7124 19.3441L17.5499 19.2661Z" fill="#0468B1"/>
<path d="M19.019 24.3099C17.8018 24.2408 16.6344 23.8033 15.6715 23.0554C15.704 23.1789 15.873 23.2569 15.821 23.4129C15.769 23.5689 15.5545 23.5559 15.4115 23.5559C15.1125 23.5039 14.8915 23.7314 14.6185 23.7639C14.3455 23.7964 14.274 23.5299 14.04 23.5559C15.4191 24.8273 17.1927 25.5867 19.0645 25.7074L19.2075 25.8049L19.1425 25.6294V24.2579L19.019 24.3099Z" fill="#0468B1"/>
<path d="M13.4161 23.634C13.2382 23.4875 13.0769 23.3218 12.9351 23.14C12.752 23.091 12.5956 22.972 12.4996 22.8085C12.4476 22.75 12.4996 22.646 12.4346 22.607L12.3501 22.685C12.1681 22.7695 12.1031 22.581 11.9731 22.503C11.8431 22.425 11.8951 22.113 11.6741 22.165C11.5896 22.165 11.5636 22.0675 11.5116 22.022C11.3101 22.022 11.2581 21.814 11.1476 21.71C11.1476 21.7555 11.1476 21.814 11.0891 21.8465C10.8811 21.892 10.8096 21.6385 10.6666 21.5345C10.6276 21.5345 10.6016 21.593 10.5496 21.58C10.4269 21.4669 10.3525 21.311 10.3416 21.1445C10.1661 20.956 10.2441 20.6505 10.2766 20.4165C10.3091 20.3515 10.4001 20.319 10.3806 20.241C10.3611 20.163 10.5431 20.1175 10.6536 20.111C10.6959 20.1371 10.7315 20.1727 10.7576 20.215C10.8226 20.1695 10.9721 20.215 10.9136 20.0655C11.0133 19.9951 11.1299 19.9526 11.2516 19.942C11.3194 20.0553 11.3977 20.1619 11.4856 20.2605L11.4401 20.15C11.3069 19.6328 11.2241 19.1038 11.1931 18.5705C11.1931 18.5705 11.1281 18.525 11.1931 18.499C11.1853 18.4017 11.1853 18.3039 11.1931 18.2065L11.0501 18.2585H9.60706C9.69318 19.8536 10.1375 21.4088 10.9071 22.8085C11.3223 23.4886 11.7827 24.1401 12.2851 24.7585L13.3186 23.686L13.4161 23.634Z" fill="#0468B1"/>
<path d="M15.08 11.5246C14.755 11.7456 14.4625 12.0381 14.1245 12.2331C14.5016 12.5263 14.8539 12.8502 15.1775 13.2016V13.2991C16.0507 12.4748 17.1429 11.9196 18.3235 11.7001C18.5916 11.6371 18.8678 11.6151 19.1425 11.6351C19.1068 11.1374 19.1068 10.6378 19.1425 10.1401C17.694 10.215 16.2936 10.6848 15.093 11.4986" fill="#0468B1"/>
<path d="M13.845 16.9388C13.8249 17.2 13.7814 17.4589 13.715 17.7123C13.9281 17.6572 14.1518 17.6572 14.365 17.7123C14.248 17.6473 14.365 17.4978 14.2805 17.4133C14.196 17.3288 14.2415 17.1273 14.365 17.0428C14.365 16.8283 14.5795 16.7178 14.599 16.5293C14.6185 16.3408 14.9045 16.4578 15.028 16.3408C15.1515 16.2238 15.028 16.2303 15.028 16.1718C15.132 16.0288 15.2945 16.0353 15.418 15.9573C15.5046 15.8121 15.6223 15.6878 15.7625 15.5933C16.081 15.5933 16.081 15.1708 16.38 15.1578C15.975 14.8264 15.5907 14.4704 15.2295 14.0918C14.5175 14.9081 14.0372 15.9001 13.8385 16.9648" fill="#0468B1"/>
<path d="M14.0399 19.045C14.0399 18.9475 13.9164 18.928 13.9294 18.8305C13.9424 18.733 13.9294 18.33 14.1894 18.2455C14.1088 18.2741 14.0228 18.2848 13.9375 18.277C13.8521 18.2691 13.7696 18.2429 13.6954 18.2L13.7669 18.3235C13.8351 18.659 13.8613 19.0019 13.8449 19.344C13.9034 19.24 13.9164 19.11 14.0399 19.045Z" fill="#0468B1"/>
<path d="M15.4696 22.7886L15.4504 22.7566L15.4696 22.8141V22.7886Z" fill="#0468B1"/>
<path d="M13.7475 12.6687L13.182 13.3837C12.2952 14.6511 11.7817 16.1419 11.7 17.6867H13.1235L13.2535 17.7387C13.2015 17.6997 13.2145 17.6412 13.195 17.5892C13.2749 16.1367 13.8587 14.7576 14.846 13.6892C14.4548 13.3533 14.0898 12.9883 13.754 12.5972L13.7475 12.6687Z" fill="#0468B1"/>
<path d="M18.1285 22.373C18.2335 22.2553 18.3682 22.1677 18.5185 22.1195C18.057 22.2105 17.6475 21.879 17.2575 21.697C17.0034 21.5621 16.7816 21.3736 16.6075 21.1445C16.3082 21.5308 15.9706 21.8857 15.6 22.204C15.7625 22.204 15.847 22.3925 15.9835 22.4705C16.7659 23.0616 17.673 23.4662 18.6355 23.6535L18.3885 23.5365C18.2 23.3285 17.9335 23.075 17.927 22.7825C18.109 22.7175 18.0895 22.5095 18.1545 22.373" fill="#0468B1"/>
<path d="M14.5795 18.2454L14.534 18.5184C14.4755 18.6809 14.274 18.5639 14.183 18.6744C14.092 18.7849 14.183 18.8824 14.2415 18.9669C14.0985 19.2984 14.5665 19.4024 14.56 19.7014C14.7095 19.8899 14.56 20.1629 14.7485 20.3514C14.794 20.6894 14.703 21.1444 15.002 21.4109L15.054 21.7359C15.1125 21.9569 14.7875 21.8984 14.8265 22.0934C14.8915 22.0934 14.9045 22.1454 14.911 22.1649C15.327 21.6811 15.7743 21.2251 16.25 20.7999L16.055 20.5984C15.6756 20.0645 15.4039 19.4618 15.2555 18.8239L15.106 18.7459C15.0722 18.898 15.0483 19.0522 15.0345 19.2074L14.95 19.2399C14.8395 19.2399 14.768 19.1489 14.677 19.0904C14.586 19.0319 14.599 18.9409 14.677 18.8954C14.7206 18.8921 14.7641 18.9035 14.8005 18.9279C14.846 18.8759 14.8005 18.7914 14.8525 18.7199C14.9045 18.6484 14.755 18.4794 14.8525 18.3689C14.9565 18.3689 15.028 18.4794 15.067 18.5444C15.106 18.6094 15.2425 18.4989 15.327 18.4599C15.4115 18.4209 15.4505 18.2519 15.327 18.1999C15.3824 18 15.3824 17.7888 15.327 17.5889C15.2685 17.4199 15.08 17.4459 14.937 17.4589C14.5145 17.5954 15.0085 17.9139 14.9045 18.1739C14.8395 18.3234 14.69 18.1739 14.5795 18.2454Z" fill="#0468B1"/>
<path d="M27.872 18.2L27.7875 18.135L27.8395 18.278C27.7629 19.9438 27.1902 21.5486 26.195 22.8865C26.0212 23.1295 25.8157 23.3481 25.584 23.5365C25.999 23.894 26.3858 24.283 26.741 24.7L26.78 24.622C28.365 22.8811 29.2856 20.6371 29.38 18.2845L29.445 18.161L29.367 18.2H27.872Z" fill="#0468B1"/>
<path d="M13.819 11.8692V11.7977C15.2591 10.4415 17.14 9.64992 19.1165 9.56821L19.071 9.44471V8.19671L19.11 8.05371C17.0972 8.1282 15.1537 8.80778 13.533 10.0037C13.2145 10.2182 12.935 10.5497 12.61 10.7382H12.6555C13.0702 11.0726 13.4551 11.4424 13.806 11.8432" fill="#0468B1"/>
<path d="M19.071 12.22C17.7874 12.329 16.5719 12.8434 15.6 13.689C15.9884 14.0113 16.3574 14.3564 16.705 14.7225C16.734 14.6855 16.76 14.6464 16.783 14.6055C17.2536 14.2376 17.7895 13.962 18.3625 13.793C18.6173 13.7171 18.8835 13.6864 19.149 13.702C19.0905 13.1923 19.0905 12.6776 19.149 12.168L19.071 12.22Z" fill="#0468B1"/>
<path d="M19.1426 14.2998C18.3047 14.3742 17.5209 14.7453 16.9325 15.3463H17.043C17.1665 15.4698 17.3681 15.4438 17.4656 15.6128C17.5631 15.7818 17.3745 15.6908 17.381 15.7688C17.3875 15.8468 17.4461 15.7688 17.4656 15.8338C17.4851 15.8988 17.5436 15.7753 17.5761 15.7363C17.6086 15.6973 17.7255 15.8598 17.8555 15.8598C17.8756 15.8436 17.8989 15.8317 17.9239 15.8248C17.9488 15.8179 17.9749 15.8163 18.0005 15.82C18.0261 15.8236 18.0507 15.8325 18.0727 15.846C18.0948 15.8596 18.1137 15.8775 18.1285 15.8988C18.213 15.8208 18.3885 15.8988 18.4145 15.7558C18.577 15.5868 18.486 15.3203 18.7265 15.2098C18.8045 15.2553 18.7265 15.3333 18.7265 15.4113C18.8825 15.4763 19.0646 15.2748 19.1946 15.4113C19.1144 15.0465 19.0967 14.6706 19.1426 14.2998Z" fill="#0468B1"/>
<path d="M19.1944 16.6009C19.1185 16.7069 19.0215 16.796 18.9097 16.8631C18.798 16.9302 18.6737 16.9737 18.5444 16.9909C18.4794 17.0754 18.4924 17.2574 18.3299 17.2379C18.2779 17.3549 18.1024 17.4199 18.1739 17.5889C18.1232 17.7846 18.0927 17.985 18.0829 18.1869C17.7774 18.3754 17.8619 17.9269 17.7124 17.8359L17.6539 17.9269C17.5954 17.9269 17.5564 17.9269 17.5109 17.8619C17.4654 17.7969 17.3874 17.8294 17.3484 17.8619C17.3094 17.8944 17.1729 18.0699 17.1989 18.2259C17.2249 18.3819 17.0169 18.2844 17.0364 18.3819C17.2119 18.3777 17.3863 18.3538 17.5564 18.3104C17.6799 18.3104 17.7774 18.2519 17.8944 18.2519C17.9199 18.2595 17.9414 18.2765 17.9547 18.2995C17.968 18.3224 17.9721 18.3496 17.9659 18.3754H18.0114C18.0501 18.3473 18.0787 18.3073 18.0927 18.2617C18.1067 18.216 18.1056 18.1669 18.0894 18.1219C18.0894 18.0179 18.2259 18.0179 18.2974 17.9854C18.3689 17.9529 18.2974 18.0829 18.3299 18.1349C18.5639 18.2259 18.2779 18.3949 18.2454 18.5184C18.2129 18.6419 18.2454 18.8369 18.0439 18.8109C18.0267 18.8037 18.0127 18.7906 18.0043 18.7739C17.996 18.7571 17.9939 18.738 17.9984 18.7199H17.9659C17.9676 18.7679 17.9817 18.8147 18.0068 18.8557C18.0318 18.8966 18.067 18.9305 18.1089 18.9539C18.2519 18.8369 18.2584 18.6289 18.4664 18.6029C18.6744 18.5769 18.4209 18.3169 18.5834 18.2259C18.8499 18.2259 19.1359 18.1024 19.3569 18.3169C19.3569 18.4144 19.3049 18.4599 19.3569 18.5314C19.3152 18.6585 19.2513 18.7774 19.1684 18.8824C19.1812 18.9169 19.1824 18.9546 19.1718 18.9897C19.1613 19.0249 19.1396 19.0557 19.1099 19.0774C19.0449 19.3959 18.6809 19.2464 18.4599 19.3504C18.7878 19.596 19.1969 19.7075 19.6039 19.6624C19.8314 19.6624 19.7274 19.3764 19.8444 19.2529C19.9159 18.8954 20.2539 19.1424 20.4554 19.0449C20.5376 18.8925 20.5947 18.728 20.6244 18.5574C20.5646 18.5156 20.5194 18.4562 20.4949 18.3875C20.4705 18.3187 20.468 18.2441 20.4879 18.1739C20.4034 18.0504 20.4099 17.8359 20.2149 17.8099C20.2149 17.7709 20.2149 17.7189 20.2149 17.6864C20.2149 17.6539 20.3189 17.5369 20.3514 17.4459C20.2344 17.3744 20.2669 17.1989 20.2734 17.1014C20.0719 17.1599 20.0524 16.8934 19.9029 16.8349C19.8639 16.7179 19.7339 16.6984 19.6299 16.6789C19.3829 16.7959 19.3439 16.4904 19.1554 16.4189C19.1554 16.3604 19.0904 16.2759 19.1554 16.2304C19.2204 16.1849 19.3699 16.2304 19.4804 16.2304L19.3959 16.1849C19.3114 16.0939 19.1294 16.1524 19.0189 16.1849C19.1229 16.2889 19.0774 16.4774 19.1424 16.6074" fill="#0468B1"/>
<path d="M11.1995 17.6995L11.167 17.498C11.2509 15.8983 11.7899 14.3559 12.7205 13.052C12.9188 12.76 13.1525 12.4937 13.416 12.259C13.078 11.9405 12.727 11.5765 12.376 11.2255L12.35 11.0825C10.8949 12.6486 9.96537 14.6303 9.69153 16.7505C9.63303 17.0625 9.69153 17.4005 9.61353 17.6995C10.1458 17.6605 10.6802 17.6605 11.2125 17.6995" fill="#0468B1"/>
<path d="M25.2395 23.9004C25.0413 24.1575 24.7992 24.3776 24.5244 24.5504C24.1864 24.8884 23.6404 24.9599 23.4649 25.4539C23.2829 25.6164 23.2244 25.8764 22.9709 25.9674C22.8734 26.2209 22.6069 26.2014 22.4574 26.3834C22.0219 26.7734 21.7424 26.1364 21.3524 26.0584L20.5529 26.2014C20.2862 26.2469 20.0137 26.2469 19.7469 26.2014C19.7859 26.7445 19.7859 27.2897 19.7469 27.8329L19.8444 27.7679C22.269 27.664 24.5757 26.6929 26.3444 25.0314L25.2589 24.0499L25.2395 23.9004Z" fill="#0468B1"/>
<path d="M19.721 9.4315C19.7224 9.38652 19.7384 9.34316 19.7665 9.308C19.838 9.2625 19.903 9.308 19.929 9.3795C19.955 9.451 19.968 9.5745 19.929 9.62C19.9875 9.62 20.02 9.581 20.0785 9.581C21.2215 9.67083 22.3309 10.0103 23.3285 10.5755C23.53 10.4715 23.79 10.3415 23.9785 10.517C24.232 10.426 24.2775 10.7315 24.479 10.7705C24.6156 10.8416 24.7355 10.941 24.8308 11.062C24.926 11.1831 24.9945 11.323 25.0315 11.4725C25.077 11.5635 25.22 11.6285 25.2395 11.726C25.4557 11.3877 25.7207 11.0832 26.026 10.8225L26.2015 10.7445C24.6928 9.30969 22.7626 8.39813 20.696 8.1445C20.358 8.12376 20.0215 8.08255 19.6885 8.021C19.7343 8.4966 19.7343 8.97546 19.6885 9.451" fill="#0468B1"/>
<path d="M19.721 11.6611C19.9191 11.6287 20.121 11.6287 20.319 11.6611C21.328 11.7967 22.2868 12.1833 23.1075 12.7856C22.992 12.6863 22.9084 12.5551 22.867 12.4086C22.8769 12.4029 22.8882 12.3999 22.8995 12.3999C22.911 12.3999 22.9222 12.4029 22.932 12.4086C22.932 12.2461 22.7695 12.1681 22.7435 12.0186C22.7572 12.0012 22.7753 11.9878 22.7959 11.9798C22.8164 11.9718 22.8388 11.9695 22.8605 11.9731C23.0283 12.1364 23.1806 12.3148 23.3155 12.5061C23.4325 12.4606 23.5235 12.5061 23.608 12.5971C23.6925 12.6881 23.6665 12.8766 23.777 12.9806C23.777 13.2861 24.1735 13.4551 24.154 13.7606C24.154 13.8386 24.245 13.7606 24.2775 13.8126L24.5895 14.1961C24.578 14.2133 24.5701 14.2327 24.5664 14.2531C24.5628 14.2736 24.5634 14.2946 24.5683 14.3148C24.5732 14.335 24.5822 14.3539 24.5948 14.3704C24.6074 14.3868 24.6233 14.4006 24.6415 14.4106C24.778 14.4756 24.856 14.3001 24.999 14.3261C25.142 14.3521 24.9665 14.5731 24.999 14.6966C25.077 14.6966 25.1745 14.6381 25.2395 14.6966C25.3045 14.7551 25.142 14.8786 25.0965 14.9566C25.051 15.0346 25.194 15.0411 25.272 15.0671C25.2943 15.0679 25.316 15.074 25.3354 15.0846C25.3549 15.0953 25.3716 15.1105 25.3842 15.1288C25.3968 15.1471 25.405 15.168 25.4081 15.1901C25.4112 15.2121 25.4091 15.2345 25.402 15.2556C25.662 15.5221 25.324 15.8146 25.4475 16.1006C25.474 16.1894 25.4752 16.2839 25.4511 16.3734C25.427 16.4629 25.3785 16.544 25.311 16.6076C25.311 16.8351 25.1095 16.9781 25.025 17.1666L24.7585 17.2186C24.622 17.3616 24.882 17.5306 24.7585 17.6216H25.3435L25.2785 17.5631C25.2377 17.4459 25.2228 17.3211 25.2352 17.1976C25.2475 17.0741 25.2867 16.9548 25.35 16.8481C25.441 16.6661 25.4605 16.4386 25.623 16.2826C25.662 16.2826 25.727 16.2046 25.7595 16.2826C25.7779 16.4645 25.7487 16.6481 25.675 16.8156C25.8041 17.0774 25.8581 17.3699 25.831 17.6606C26.3445 17.6281 26.8515 17.6216 27.352 17.6216L27.3 17.5501C27.2538 16.6223 27.0333 15.7116 26.65 14.8656C26.5395 14.8656 26.4615 14.9566 26.338 14.9241C26.3174 14.9167 26.3001 14.9021 26.2894 14.883C26.2786 14.8639 26.2751 14.8415 26.2795 14.8201C26.1016 14.5925 25.9106 14.3755 25.7075 14.1701C25.441 14.1701 25.324 13.8906 25.0575 13.8581C24.791 13.8256 24.9925 13.4291 24.687 13.5201C24.6072 13.4954 24.5348 13.4508 24.4768 13.3906C24.4188 13.3303 24.3771 13.2564 24.3555 13.1756C24.3693 13.0355 24.3487 12.8942 24.2954 12.7639C24.2422 12.6337 24.1579 12.5184 24.05 12.4281C23.8615 12.3631 23.7835 12.6101 23.595 12.5711C23.4065 12.5321 23.543 12.3826 23.5105 12.2981C23.478 12.2136 23.387 12.1616 23.4 12.0576C23.6405 11.7326 23.1075 11.7391 23.2245 11.4076C23.2245 11.1801 22.958 11.0956 22.841 10.9136C22.0449 10.5445 21.1963 10.3011 20.3255 10.1921C20.1051 10.2031 19.8845 10.1721 19.6755 10.1011L19.7275 10.1986C19.7275 10.6861 19.7275 11.1996 19.7275 11.6481" fill="#0468B1"/>
<path d="M25.3954 12.1938C25.5059 12.1938 25.5384 12.3498 25.6099 12.4278C25.9869 12.6293 26.0844 13.0388 26.4159 13.2663C26.6044 13.6563 27.0659 13.9553 27.0659 14.4038C27.5419 15.4125 27.8094 16.5068 27.8524 17.6213L27.8134 17.6863C27.8582 17.684 27.9013 17.6682 27.9369 17.6408H29.4319C29.3344 17.4913 29.3734 17.2833 29.3474 17.1078C29.1303 14.8401 28.1653 12.7091 26.6044 11.0498C26.2826 11.4408 25.9376 11.812 25.5709 12.1613L25.3954 12.1938Z" fill="#0468B1"/>
<path d="M19.929 9.18445C19.9745 9.09995 20.0915 9.13245 20.1565 9.18445L20.904 8.85945C21.0537 8.85139 21.2035 8.87499 21.3436 8.92874C21.4836 8.9825 21.6106 9.06524 21.7165 9.17145V9.21045C21.6345 9.29625 21.5306 9.358 21.416 9.38894C21.3014 9.41988 21.1805 9.41884 21.0665 9.38595C20.722 9.45095 20.241 9.64595 19.968 9.29495C19.968 9.29495 19.929 9.23645 19.968 9.21045" fill="white"/>
<path d="M24.3879 10.1272C24.4399 10.1357 24.4887 10.1576 24.5297 10.1907C24.5707 10.2237 24.6024 10.2668 24.6219 10.3157C24.6219 10.4327 24.7324 10.5302 24.6219 10.6212C24.3424 10.6992 24.3164 10.3807 24.1019 10.3027C24.0856 10.2817 24.0737 10.2577 24.067 10.2319C24.0603 10.2063 24.0589 10.1794 24.0629 10.1532C24.1604 10.0362 24.2514 10.2312 24.3619 10.1532" fill="white"/>
</g>
<defs>
<clipPath id="clip0_219_81">
<rect width="39" height="79.3" fill="white"/>
</clipPath>
</defs>
</svg>
