<svg width="64" height="64" viewBox="0 0 64 64" fill="none" xmlns="http://www.w3.org/2000/svg">
<path d="M37.776 7.64205C38.1474 7.99957 38.6764 8.14132 39.1768 8.0174L46.959 6.09028L49.1811 13.7934C49.324 14.2887 49.7113 14.676 50.2066 14.8189L57.9097 17.041L55.9826 24.8232C55.8587 25.3236 56.0004 25.8526 56.3579 26.224L61.918 32L56.3579 37.776C56.0004 38.1474 55.8587 38.6764 55.9826 39.1768L57.9097 46.959L50.2066 49.1811C49.7113 49.324 49.324 49.7113 49.1811 50.2066L46.959 57.9097L39.1768 55.9826C38.6764 55.8587 38.1474 56.0004 37.776 56.3579L32 61.918L26.224 56.3579C25.8526 56.0004 25.3236 55.8587 24.8232 55.9826L17.041 57.9097L14.8189 50.2066C14.676 49.7113 14.2887 49.324 13.7934 49.1811L6.09028 46.959L8.0174 39.1768C8.14132 38.6764 7.99957 38.1474 7.64205 37.776L2.08204 32L7.64205 26.224C7.99957 25.8526 8.14132 25.3236 8.0174 24.8232L6.09028 17.041L13.7934 14.8189C14.2887 14.676 14.676 14.2887 14.8189 13.7934L17.041 6.09028L24.8232 8.0174C25.3236 8.14132 25.8526 7.99957 26.224 7.64205L32 2.08204L37.776 7.64205Z" stroke="#006EB5" stroke-width="3" stroke-linejoin="round"/>
<path d="M20 31.9843L27.8277 40L38.4686 29.3853L44 24" stroke="#006EB5" stroke-width="3" stroke-linejoin="round"/>
</svg>
