<svg width="68" height="64" viewBox="0 0 68 64" fill="none" xmlns="http://www.w3.org/2000/svg">
<path fill-rule="evenodd" clip-rule="evenodd" d="M23.3332 27.6C30.4024 27.6 36.1332 21.8692 36.1332 14.8C36.1332 7.73075 30.4024 2 23.3332 2C16.264 2 10.5332 7.73075 10.5332 14.8C10.5332 21.8692 16.264 27.6 23.3332 27.6Z" stroke="#006EB5" stroke-width="3" stroke-linejoin="round"/>
<path fill-rule="evenodd" clip-rule="evenodd" d="M53.1993 23.3333C57.9122 23.3333 61.7327 19.5128 61.7327 14.7999C61.7327 10.0871 57.9122 6.2666 53.1993 6.2666C48.4865 6.2666 44.666 10.0871 44.666 14.7999C44.666 19.5128 48.4865 23.3333 53.1993 23.3333Z" stroke="#006EB5" stroke-width="3" stroke-linejoin="round"/>
<path fill-rule="evenodd" clip-rule="evenodd" d="M23.3333 36.1338V36.1338C11.5513 36.1338 2 47.5953 2 61.7338H44.6667C44.6667 47.5953 35.1154 36.1338 23.3333 36.1338V36.1338Z" stroke="#006EB5" stroke-width="3" stroke-linejoin="round"/>
<path d="M46.1211 34.5329C48.2178 32.789 50.681 31.8611 53.1995 31.8662V31.8662C60.2687 31.8662 65.9995 39.0297 65.9995 47.8662V53.1996H53.1995" stroke="#006EB5" stroke-width="3" stroke-linejoin="round"/>
</svg>
