<svg width="112" height="34" viewBox="0 0 112 34" fill="none" xmlns="http://www.w3.org/2000/svg">
<path d="M29.4786 0C31.9897 0 34.0001 1.80791 34.0001 4.02632C34.0001 6.23811 31.9897 8.05263 29.4786 8.05263C27.0631 8.05263 25.0527 6.24473 25.0527 4.02632C25.0527 1.80791 27.0631 0 29.4786 0Z" fill="#FBAB18"/>
<path d="M23.4887 29.4124V1.2076H19.0048C18.7123 1.2076 18.4225 1.26486 18.1522 1.37599C17.8819 1.48712 17.6362 1.65014 17.4293 1.85548C17.2223 2.06091 17.0582 2.30472 16.9462 2.57315C16.8343 2.84148 16.7767 3.12914 16.7767 3.41966V13.0231C16.2419 12.1792 14.5828 10.7567 10.7845 10.7567C4.47699 10.7567 0 15.6843 0 22.2591C0 29.0517 4.74434 33.85 11.0039 33.85C13.6846 33.85 15.9265 32.7406 16.9549 31.2297C16.9549 32.1145 17.0921 33.0946 17.1331 33.3601H23.667C23.619 32.8768 23.4887 31.4135 23.4887 29.4124ZM11.854 27.813C9.21445 27.813 6.84232 25.9481 6.84232 22.3067C6.84232 18.6178 9.21445 16.8414 11.854 16.8414C14.4936 16.8414 16.8658 18.6178 16.8658 22.3067C16.8658 25.9481 14.4936 27.813 11.854 27.813ZM33.2516 11.2944V33.3669H26.4505V13.5064C26.4505 12.2813 27.4515 11.2944 28.6787 11.2944H33.2516ZM41.856 20.6188L47.0871 19.8225C48.2938 19.6455 48.6982 19.067 48.6982 18.3116C48.6982 17.0252 47.5807 15.9157 45.4348 15.9157C43.0626 15.9157 41.6091 17.8487 41.6091 19.5094H35.5758C35.5758 16.2765 38.524 10.6342 45.4759 10.6342C52.6812 10.6342 55.3216 14.6294 55.3216 19.1623V29.9569C55.3216 31.6857 55.5471 33.1558 55.5882 33.3737H49.4593C49.4113 33.1967 49.233 32.3936 49.233 30.8893C48.0675 32.7542 45.9216 33.9998 42.9666 33.9998C38.092 33.9998 35.2742 30.8009 35.2742 27.2957C35.281 23.3753 38.188 21.1498 41.856 20.6188ZM48.6982 24.7026V23.7225L44.4955 24.3894C43.0626 24.6141 41.993 25.2742 41.993 26.8329C41.993 27.9899 42.7541 29.0993 44.6326 29.0993C46.6415 29.0993 48.6982 28.126 48.6982 24.7026ZM65.0841 1.2076V33.3601H58.2832V3.42646C58.2832 2.20129 59.2844 1.2076 60.5111 1.2076H65.0841ZM71.885 9.41583V1.2076H74.8474C77.206 1.2076 78.9265 2.72543 78.9265 5.31856C78.9265 7.91168 77.1916 9.41583 74.8331 9.41583H71.885ZM74.7714 7.93209C76.1224 7.93209 77.2534 7.10177 77.2534 5.31856C77.2534 3.53535 76.1358 2.69134 74.7785 2.69134H73.4829V7.93209H74.7714ZM80.6471 0.894531C81.1822 0.894531 81.6 1.32329 81.6 1.85423C81.6 2.36467 81.1822 2.79343 80.6471 2.79343C80.1192 2.79343 79.6871 2.36467 79.6871 1.85423C79.6871 1.32329 80.1192 0.894531 80.6471 0.894531ZM79.8794 9.41583V3.71912H81.4291V9.41583H79.8794ZM83.7527 9.35462C83.8556 9.98076 84.3567 10.43 85.0966 10.43C86.0773 10.43 86.6257 9.94677 86.6257 8.84418V8.42893C86.3922 8.79649 85.8581 9.15725 85.0286 9.15725C83.4995 9.15725 82.3614 7.98657 82.3614 6.39394C82.3614 4.8898 83.4584 3.61704 85.0286 3.61704C85.9404 3.61704 86.4611 4.01179 86.6597 4.39295V3.71912H88.1548V8.79649C88.1548 10.3619 87.3048 11.7845 85.145 11.7845C83.5675 11.7845 82.5189 10.8112 82.3614 9.72219L83.7527 9.35462ZM86.6463 6.39394C86.6463 5.51594 86.0433 4.9578 85.2953 4.9578C84.5276 4.9578 83.9174 5.51594 83.9174 6.39394C83.9174 7.28555 84.4864 7.84368 85.2953 7.84368C86.0907 7.84368 86.6463 7.27195 86.6463 6.39394ZM90.2315 0.894531C90.7666 0.894531 91.1853 1.32329 91.1853 1.85423C91.1853 2.36467 90.7666 2.79343 90.2315 2.79343C89.7036 2.79343 89.2724 2.36467 89.2724 1.85423C89.2724 1.32329 89.7036 0.894531 90.2315 0.894531ZM89.4576 9.41583V3.71912H91.0064V9.41583H89.4576ZM94.2766 3.71912H95.4291V5.08718H94.2766V7.46932C94.2766 7.96617 94.5102 8.12946 94.9557 8.12946C95.141 8.12946 95.353 8.10906 95.4353 8.08186V9.35462C95.2984 9.40902 95.0175 9.49071 94.5585 9.49071C93.441 9.49071 92.7413 8.83058 92.7413 7.7347V5.08718H91.7061V3.71912H91.9942C92.5972 3.71912 92.8782 3.32437 92.8782 2.81383V2.01752H94.2766V3.71912ZM97.8082 6.14207L99.2201 5.9311C99.5493 5.8835 99.6522 5.72012 99.6522 5.52954C99.6522 5.12118 99.3364 4.78771 98.685 4.78771C98.0068 4.78771 97.6364 5.21647 97.5881 5.71332L96.2102 5.42745C96.3068 4.53584 97.1291 3.55575 98.6716 3.55575C100.489 3.55575 101.167 4.57664 101.167 5.72011V8.51742C101.167 8.81689 101.202 9.22534 101.236 9.42272H99.8097C99.7757 9.27294 99.7551 8.95987 99.7551 8.74209C99.467 9.19124 98.9185 9.586 98.0614 9.586C96.841 9.586 96.0938 8.76249 96.0938 7.87088C96.0938 6.8431 96.8481 6.27825 97.8082 6.14207ZM99.6451 7.10857V6.85679L98.3495 7.05417C97.9522 7.10857 97.6364 7.33315 97.6364 7.76879C97.6364 8.10226 97.8833 8.42893 98.3835 8.42893C99.042 8.42893 99.6451 8.11586 99.6451 7.10857ZM102.436 9.41583V1.03742H103.985V9.41583H102.436ZM71.885 21.3879V13.1865H73.517V21.3879H71.885ZM74.8743 21.3879V15.6912H76.3551V16.3854C76.6709 15.8273 77.4046 15.5279 78.0354 15.5279C78.8165 15.5279 79.4473 15.8613 79.7354 16.4739C80.1881 15.7796 80.7983 15.5279 81.5526 15.5279C82.6146 15.5279 83.6293 16.1676 83.6293 17.6921V21.3811H82.1279V17.9985C82.1279 17.3859 81.8264 16.9231 81.1133 16.9231C80.4485 16.9231 80.0512 17.4336 80.0512 18.0461V21.3811H78.515V17.9985C78.515 17.3859 78.2 16.9231 77.5003 16.9231C76.8212 16.9231 76.4311 17.42 76.4311 18.0461V21.3811H74.8743V21.3879ZM84.9392 23.5863V15.6912H86.4405V16.3854C86.6946 15.943 87.3388 15.5619 88.2023 15.5619C89.8826 15.5619 90.8489 16.8346 90.8489 18.5225C90.8489 20.2445 89.7654 21.5172 88.1405 21.5172C87.346 21.5172 86.7626 21.2042 86.4817 20.823V23.5795H84.9392V23.5863ZM87.8945 16.9435C87.0991 16.9435 86.4611 17.5357 86.4611 18.5429C86.4611 19.5502 87.0991 20.1492 87.8945 20.1492C88.689 20.1492 89.3198 19.557 89.3198 18.5429C89.3198 17.5357 88.689 16.9435 87.8945 16.9435ZM93.2074 18.1142L94.6202 17.9032C94.9486 17.8555 95.0515 17.6922 95.0515 17.5017C95.0515 17.0932 94.7365 16.7597 94.0852 16.7597C93.4061 16.7597 93.0356 17.1885 92.9882 17.6853L91.6103 17.3996C91.7061 16.5079 92.5283 15.5279 94.0717 15.5279C95.8881 15.5279 96.5672 16.5488 96.5672 17.6921V20.4895C96.5672 20.789 96.6012 21.1974 96.6352 21.3947H95.2098C95.1749 21.2451 95.1544 20.9319 95.1544 20.7141C94.8663 21.1634 94.3178 21.5581 93.4615 21.5581C92.2411 21.5581 91.4931 20.7345 91.4931 19.8429C91.4931 18.822 92.2545 18.2571 93.2074 18.1142ZM95.0515 19.0875V18.8356L93.7559 19.033C93.3586 19.0875 93.0428 19.3121 93.0428 19.7476C93.0428 20.0812 93.2897 20.4078 93.7899 20.4078C94.4413 20.4078 95.0515 20.0948 95.0515 19.0875ZM98.9937 18.5429C98.9937 19.5707 99.6728 20.1492 100.461 20.1492C101.256 20.1492 101.647 19.6251 101.777 19.1896L103.142 19.6387C102.888 20.5848 101.99 21.5581 100.461 21.5581C98.7673 21.5581 97.4449 20.2854 97.4449 18.5361C97.4449 16.7801 98.7467 15.5142 100.42 15.5142C101.983 15.5142 102.868 16.4739 103.115 17.4336L101.73 17.8964C101.592 17.42 101.229 16.9367 100.461 16.9367C99.6594 16.9435 98.9937 17.5153 98.9937 18.5429ZM106.124 15.698H107.276V17.066H106.124V19.4481C106.124 19.945 106.357 20.1084 106.803 20.1084C106.988 20.1084 107.2 20.088 107.283 20.0608V21.3335C107.146 21.3879 106.865 21.4696 106.406 21.4696C105.288 21.4696 104.588 20.8094 104.588 19.7136V17.066H103.553V15.698H103.841C104.444 15.698 104.725 15.3032 104.725 14.7927V13.9964H106.124V15.698ZM76.0329 31.4884H72.6741L71.9878 33.3601H70.2878L73.4624 25.1585H75.327L78.4738 33.3601H76.7255L76.0329 31.4884ZM73.2083 30.0318H75.4916L74.3464 26.9281L73.2083 30.0318ZM79.1797 33.3669V24.9884H80.7294V33.3669H79.1797ZM82.0527 33.3669V24.9884H83.6024V33.3669H82.0527ZM85.7068 24.8455C86.2419 24.8455 86.6597 25.2742 86.6597 25.8052C86.6597 26.3156 86.2419 26.7444 85.7068 26.7444C85.1789 26.7444 84.7468 26.3156 84.7468 25.8052C84.7468 25.2742 85.1789 24.8455 85.7068 24.8455ZM84.932 33.3669V27.6701H86.4817V33.3669H84.932ZM89.2106 30.093L90.6225 29.882C90.9518 29.8344 91.0547 29.6711 91.0547 29.4805C91.0547 29.0721 90.7397 28.7387 90.0884 28.7387C89.4093 28.7387 89.0388 29.1674 88.9914 29.6643L87.6126 29.3784C87.7093 28.4868 88.5315 27.5067 90.0741 27.5067C91.8913 27.5067 92.5695 28.5276 92.5695 29.6711V32.4684C92.5695 32.7679 92.6044 33.1763 92.6384 33.3737H91.2122C91.1782 33.2239 91.1576 32.9108 91.1576 32.693C90.8695 33.1422 90.321 33.5369 89.4638 33.5369C88.2434 33.5369 87.4963 32.7134 87.4963 31.8218C87.4963 30.794 88.2506 30.2292 89.2106 30.093ZM91.0475 31.0595V30.8077L89.752 31.0051C89.3547 31.0595 89.0389 31.2841 89.0389 31.7197C89.0389 32.0532 89.2858 32.38 89.786 32.38C90.4445 32.38 91.0475 32.0668 91.0475 31.0595ZM95.3879 33.3669H93.8382V27.6701H95.3396V28.3779C95.6894 27.7858 96.3748 27.5203 96.9984 27.5203C98.4246 27.5203 99.076 28.5276 99.076 29.7799V33.3669H97.5263V30.0454C97.5263 29.4124 97.2114 28.9087 96.4643 28.9087C95.7852 28.9087 95.3942 29.4261 95.3942 30.0862V33.3669H95.3879ZM101.537 30.5151C101.537 31.5428 102.217 32.1213 103.005 32.1213C103.8 32.1213 104.191 31.5972 104.321 31.1616L105.685 31.6108C105.431 32.5569 104.534 33.5301 103.005 33.5301C101.311 33.5301 99.9877 32.2574 99.9877 30.5083C99.9877 28.7523 101.29 27.4863 102.964 27.4863C104.527 27.4863 105.411 28.446 105.658 29.4056L104.273 29.8684C104.136 29.392 103.772 28.9087 103.005 28.9087C102.202 28.9223 101.537 29.4873 101.537 30.5151ZM111.76 31.7333C111.472 32.7134 110.56 33.5369 109.148 33.5369C107.571 33.5369 106.186 32.414 106.186 30.4946C106.186 28.6774 107.537 27.4999 109.01 27.4999C110.786 27.4999 111.842 28.6229 111.842 30.4538C111.842 30.6715 111.822 30.903 111.822 30.9302H107.715C107.749 31.6857 108.394 32.2234 109.161 32.2234C109.888 32.2234 110.279 31.8626 110.47 31.3522L111.76 31.7333ZM110.313 29.8684C110.292 29.3035 109.916 28.7455 109.031 28.7455C108.229 28.7455 107.784 29.3444 107.749 29.8684H110.313Z" fill="#070648"/>
</svg>
